<?xml version="1.0" encoding="UTF-8" standalone="no"?>
<!DOCTYPE svg PUBLIC "-//W3C//DTD SVG 1.1//EN"
 "http://www.w3.org/Graphics/SVG/1.1/DTD/svg11.dtd">
<!-- Generated by graphviz version 5.0.0 (20220707.1540)
 -->
<!-- Title: dependencies Pages: 1 -->
<svg width="4111pt" height="247pt"
 viewBox="0.00 0.00 4111.00 246.80" xmlns="http://www.w3.org/2000/svg" xmlns:xlink="http://www.w3.org/1999/xlink">
<g id="graph0" class="graph" transform="scale(1 1) rotate(0) translate(4 242.8)">
<title>dependencies</title>
<polygon fill="white" stroke="transparent" points="-4,4 -4,-242.8 4107,-242.8 4107,4 -4,4"/>
<text text-anchor="middle" x="2051.5" y="-8.2" font-family="sans-serif" font-size="14.00">dependencies</text>
<g id="clust1" class="cluster">
<title>cluster_KhiopsCovisualizationModule</title>
<polygon fill="none" stroke="black" stroke-dasharray="1,5" points="8,-32.8 8,-230.8 4095,-230.8 4095,-32.8 8,-32.8"/>
</g>
<g id="clust24" class="cluster">
<title>cluster_KhiopsCovisualizationModule_imports</title>
<polygon fill="none" stroke="black" points="3929,-40.8 3929,-92.8 4087,-92.8 4087,-40.8 3929,-40.8"/>
</g>
<g id="clust26" class="cluster">
<title>cluster_KhiopsCovisualizationModule_bootstrap</title>
<polygon fill="none" stroke="black" points="2191,-170.8 2191,-222.8 2315,-222.8 2315,-170.8 2191,-170.8"/>
</g>
<g id="clust27" class="cluster">
<title>cluster_KhiopsCovisualizationModule_providers</title>
<polygon fill="none" stroke="black" points="3759,-40.8 3759,-92.8 3921,-92.8 3921,-40.8 3759,-40.8"/>
</g>
<g id="clust2" class="cluster">
<title>cluster_KhiopsCovisualizationModule_declarations</title>
<polygon fill="none" stroke="black" points="16,-40.8 16,-92.8 3751,-92.8 3751,-40.8 16,-40.8"/>
</g>
<!-- AnnotationComponent -->
<g id="node1" class="node">
<title>AnnotationComponent</title>
<polygon fill="#ffffb3" stroke="black" points="3743.32,-84.8 3598.68,-84.8 3598.68,-48.8 3743.32,-48.8 3743.32,-84.8"/>
<text text-anchor="middle" x="3671" y="-62.6" font-family="Times,serif" font-size="14.00">AnnotationComponent</text>
</g>
<!-- KhiopsCovisualizationModule -->
<g id="node22" class="node">
<title>KhiopsCovisualizationModule</title>
<polygon fill="#8dd3c7" stroke="black" points="2346.88,-149.8 2343.88,-153.8 2322.88,-153.8 2319.88,-149.8 2159.12,-149.8 2159.12,-113.8 2346.88,-113.8 2346.88,-149.8"/>
<text text-anchor="middle" x="2253" y="-127.6" font-family="Times,serif" font-size="14.00">KhiopsCovisualizationModule</text>
</g>
<!-- AnnotationComponent&#45;&gt;KhiopsCovisualizationModule -->
<g id="edge1" class="edge">
<title>AnnotationComponent&#45;&gt;KhiopsCovisualizationModule</title>
<path fill="none" stroke="black" d="M3671,-85.08C3671,-106.12 3671,-137.8 3671,-137.8 3671,-137.8 2357.14,-137.8 2357.14,-137.8"/>
<polygon fill="black" stroke="black" points="2357.14,-134.3 2347.14,-137.8 2357.14,-141.3 2357.14,-134.3"/>
</g>
<!-- AppComponent -->
<g id="node2" class="node">
<title>AppComponent</title>
<polygon fill="#ffffb3" stroke="black" points="3580.94,-84.8 3475.06,-84.8 3475.06,-48.8 3580.94,-48.8 3580.94,-84.8"/>
<text text-anchor="middle" x="3528" y="-62.6" font-family="Times,serif" font-size="14.00">AppComponent</text>
</g>
<!-- AppComponent&#45;&gt;KhiopsCovisualizationModule -->
<g id="edge2" class="edge">
<title>AppComponent&#45;&gt;KhiopsCovisualizationModule</title>
<path fill="none" stroke="black" d="M3528,-85.02C3528,-105.17 3528,-134.8 3528,-134.8 3528,-134.8 2357.01,-134.8 2357.01,-134.8"/>
<polygon fill="black" stroke="black" points="2357.01,-131.3 2347.01,-134.8 2357.01,-138.3 2357.01,-131.3"/>
</g>
<!-- AxisComponent -->
<g id="node3" class="node">
<title>AxisComponent</title>
<polygon fill="#ffffb3" stroke="black" points="3456.78,-84.8 3349.22,-84.8 3349.22,-48.8 3456.78,-48.8 3456.78,-84.8"/>
<text text-anchor="middle" x="3403" y="-62.6" font-family="Times,serif" font-size="14.00">AxisComponent</text>
</g>
<!-- AxisComponent&#45;&gt;KhiopsCovisualizationModule -->
<g id="edge3" class="edge">
<title>AxisComponent&#45;&gt;KhiopsCovisualizationModule</title>
<path fill="none" stroke="black" d="M3403,-84.91C3403,-104.14 3403,-131.8 3403,-131.8 3403,-131.8 2357.11,-131.8 2357.11,-131.8"/>
<polygon fill="black" stroke="black" points="2357.11,-128.3 2347.11,-131.8 2357.11,-135.3 2357.11,-128.3"/>
</g>
<!-- AxisViewComponent -->
<g id="node4" class="node">
<title>AxisViewComponent</title>
<polygon fill="#ffffb3" stroke="black" points="3331.1,-84.8 3192.9,-84.8 3192.9,-48.8 3331.1,-48.8 3331.1,-84.8"/>
<text text-anchor="middle" x="3262" y="-62.6" font-family="Times,serif" font-size="14.00">AxisViewComponent</text>
</g>
<!-- AxisViewComponent&#45;&gt;KhiopsCovisualizationModule -->
<g id="edge4" class="edge">
<title>AxisViewComponent&#45;&gt;KhiopsCovisualizationModule</title>
<path fill="none" stroke="black" d="M3262,-85.07C3262,-103.36 3262,-128.8 3262,-128.8 3262,-128.8 2357.02,-128.8 2357.02,-128.8"/>
<polygon fill="black" stroke="black" points="2357.02,-125.3 2347.02,-128.8 2357.02,-132.3 2357.02,-125.3"/>
</g>
<!-- ClusterDetailsComponent -->
<g id="node5" class="node">
<title>ClusterDetailsComponent</title>
<polygon fill="#ffffb3" stroke="black" points="3174.93,-84.8 3013.07,-84.8 3013.07,-48.8 3174.93,-48.8 3174.93,-84.8"/>
<text text-anchor="middle" x="3094" y="-62.6" font-family="Times,serif" font-size="14.00">ClusterDetailsComponent</text>
</g>
<!-- ClusterDetailsComponent&#45;&gt;KhiopsCovisualizationModule -->
<g id="edge5" class="edge">
<title>ClusterDetailsComponent&#45;&gt;KhiopsCovisualizationModule</title>
<path fill="none" stroke="black" d="M3094,-84.82C3094,-102.17 3094,-125.8 3094,-125.8 3094,-125.8 2357.03,-125.8 2357.03,-125.8"/>
<polygon fill="black" stroke="black" points="2357.03,-122.3 2347.03,-125.8 2357.03,-129.3 2357.03,-122.3"/>
</g>
<!-- CompositionComponent -->
<g id="node6" class="node">
<title>CompositionComponent</title>
<polygon fill="#ffffb3" stroke="black" points="2994.68,-84.8 2841.32,-84.8 2841.32,-48.8 2994.68,-48.8 2994.68,-84.8"/>
<text text-anchor="middle" x="2918" y="-62.6" font-family="Times,serif" font-size="14.00">CompositionComponent</text>
</g>
<!-- CompositionComponent&#45;&gt;KhiopsCovisualizationModule -->
<g id="edge6" class="edge">
<title>CompositionComponent&#45;&gt;KhiopsCovisualizationModule</title>
<path fill="none" stroke="black" d="M2918,-84.83C2918,-101.2 2918,-122.8 2918,-122.8 2918,-122.8 2357.22,-122.8 2357.22,-122.8"/>
<polygon fill="black" stroke="black" points="2357.22,-119.3 2347.22,-122.8 2357.22,-126.3 2357.22,-119.3"/>
</g>
<!-- ExternalDatasComponent -->
<g id="node7" class="node">
<title>ExternalDatasComponent</title>
<polygon fill="#ffffb3" stroke="black" points="2823.13,-84.8 2662.87,-84.8 2662.87,-48.8 2823.13,-48.8 2823.13,-84.8"/>
<text text-anchor="middle" x="2743" y="-62.6" font-family="Times,serif" font-size="14.00">ExternalDatasComponent</text>
</g>
<!-- ExternalDatasComponent&#45;&gt;KhiopsCovisualizationModule -->
<g id="edge7" class="edge">
<title>ExternalDatasComponent&#45;&gt;KhiopsCovisualizationModule</title>
<path fill="none" stroke="black" d="M2743,-85.04C2743,-100.37 2743,-119.8 2743,-119.8 2743,-119.8 2356.9,-119.8 2356.9,-119.8"/>
<polygon fill="black" stroke="black" points="2356.9,-116.3 2346.9,-119.8 2356.9,-123.3 2356.9,-116.3"/>
</g>
<!-- HeaderManageViewComponent -->
<g id="node8" class="node">
<title>HeaderManageViewComponent</title>
<polygon fill="#ffffb3" stroke="black" points="2644.66,-84.8 2447.34,-84.8 2447.34,-48.8 2644.66,-48.8 2644.66,-84.8"/>
<text text-anchor="middle" x="2546" y="-62.6" font-family="Times,serif" font-size="14.00">HeaderManageViewComponent</text>
</g>
<!-- HeaderManageViewComponent&#45;&gt;KhiopsCovisualizationModule -->
<g id="edge8" class="edge">
<title>HeaderManageViewComponent&#45;&gt;KhiopsCovisualizationModule</title>
<path fill="none" stroke="black" d="M2546,-84.85C2546,-99.17 2546,-116.8 2546,-116.8 2546,-116.8 2356.92,-116.8 2356.92,-116.8"/>
<polygon fill="black" stroke="black" points="2356.92,-113.3 2346.92,-116.8 2356.92,-120.3 2356.92,-113.3"/>
</g>
<!-- HierarchySelectComponent -->
<g id="node9" class="node">
<title>HierarchySelectComponent</title>
<polygon fill="#ffffb3" stroke="black" points="2429.5,-84.8 2258.5,-84.8 2258.5,-48.8 2429.5,-48.8 2429.5,-84.8"/>
<text text-anchor="middle" x="2344" y="-62.6" font-family="Times,serif" font-size="14.00">HierarchySelectComponent</text>
</g>
<!-- HierarchySelectComponent&#45;&gt;KhiopsCovisualizationModule -->
<g id="edge9" class="edge">
<title>HierarchySelectComponent&#45;&gt;KhiopsCovisualizationModule</title>
<path fill="none" stroke="black" d="M2302.59,-84.91C2302.59,-84.91 2302.59,-103.79 2302.59,-103.79"/>
<polygon fill="black" stroke="black" points="2299.09,-103.79 2302.59,-113.79 2306.09,-103.79 2299.09,-103.79"/>
</g>
<!-- HomeLayoutComponent -->
<g id="node10" class="node">
<title>HomeLayoutComponent</title>
<polygon fill="#ffffb3" stroke="black" points="2240.7,-84.8 2085.3,-84.8 2085.3,-48.8 2240.7,-48.8 2240.7,-84.8"/>
<text text-anchor="middle" x="2163" y="-62.6" font-family="Times,serif" font-size="14.00">HomeLayoutComponent</text>
</g>
<!-- HomeLayoutComponent&#45;&gt;KhiopsCovisualizationModule -->
<g id="edge10" class="edge">
<title>HomeLayoutComponent&#45;&gt;KhiopsCovisualizationModule</title>
<path fill="none" stroke="black" d="M2199.83,-84.91C2199.83,-84.91 2199.83,-103.79 2199.83,-103.79"/>
<polygon fill="black" stroke="black" points="2196.33,-103.79 2199.83,-113.79 2203.33,-103.79 2196.33,-103.79"/>
</g>
<!-- ImportExtDatasComponent -->
<g id="node11" class="node">
<title>ImportExtDatasComponent</title>
<polygon fill="#ffffb3" stroke="black" points="2067.25,-84.8 1896.75,-84.8 1896.75,-48.8 2067.25,-48.8 2067.25,-84.8"/>
<text text-anchor="middle" x="1982" y="-62.6" font-family="Times,serif" font-size="14.00">ImportExtDatasComponent</text>
</g>
<!-- ImportExtDatasComponent&#45;&gt;KhiopsCovisualizationModule -->
<g id="edge11" class="edge">
<title>ImportExtDatasComponent&#45;&gt;KhiopsCovisualizationModule</title>
<path fill="none" stroke="black" d="M1982,-84.85C1982,-99.17 1982,-116.8 1982,-116.8 1982,-116.8 2148.98,-116.8 2148.98,-116.8"/>
<polygon fill="black" stroke="black" points="2148.98,-120.3 2158.98,-116.8 2148.98,-113.3 2148.98,-120.3"/>
</g>
<!-- ImportExtDatasListComponent -->
<g id="node12" class="node">
<title>ImportExtDatasListComponent</title>
<polygon fill="#ffffb3" stroke="black" points="1878.03,-84.8 1685.97,-84.8 1685.97,-48.8 1878.03,-48.8 1878.03,-84.8"/>
<text text-anchor="middle" x="1782" y="-62.6" font-family="Times,serif" font-size="14.00">ImportExtDatasListComponent</text>
</g>
<!-- ImportExtDatasListComponent&#45;&gt;KhiopsCovisualizationModule -->
<g id="edge12" class="edge">
<title>ImportExtDatasListComponent&#45;&gt;KhiopsCovisualizationModule</title>
<path fill="none" stroke="black" d="M1782,-85.04C1782,-100.37 1782,-119.8 1782,-119.8 1782,-119.8 2149.1,-119.8 2149.1,-119.8"/>
<polygon fill="black" stroke="black" points="2149.1,-123.3 2159.1,-119.8 2149.1,-116.3 2149.1,-123.3"/>
</g>
<!-- LoadExtDatasComponent -->
<g id="node13" class="node">
<title>LoadExtDatasComponent</title>
<polygon fill="#ffffb3" stroke="black" points="1667.91,-84.8 1506.09,-84.8 1506.09,-48.8 1667.91,-48.8 1667.91,-84.8"/>
<text text-anchor="middle" x="1587" y="-62.6" font-family="Times,serif" font-size="14.00">LoadExtDatasComponent</text>
</g>
<!-- LoadExtDatasComponent&#45;&gt;KhiopsCovisualizationModule -->
<g id="edge13" class="edge">
<title>LoadExtDatasComponent&#45;&gt;KhiopsCovisualizationModule</title>
<path fill="none" stroke="black" d="M1587,-84.83C1587,-101.2 1587,-122.8 1587,-122.8 1587,-122.8 2148.99,-122.8 2148.99,-122.8"/>
<polygon fill="black" stroke="black" points="2148.99,-126.3 2158.99,-122.8 2148.99,-119.3 2148.99,-126.3"/>
</g>
<!-- ManageViewsComponent -->
<g id="node14" class="node">
<title>ManageViewsComponent</title>
<polygon fill="#ffffb3" stroke="black" points="1488.19,-84.8 1325.81,-84.8 1325.81,-48.8 1488.19,-48.8 1488.19,-84.8"/>
<text text-anchor="middle" x="1407" y="-62.6" font-family="Times,serif" font-size="14.00">ManageViewsComponent</text>
</g>
<!-- ManageViewsComponent&#45;&gt;KhiopsCovisualizationModule -->
<g id="edge14" class="edge">
<title>ManageViewsComponent&#45;&gt;KhiopsCovisualizationModule</title>
<path fill="none" stroke="black" d="M1407,-84.82C1407,-102.17 1407,-125.8 1407,-125.8 1407,-125.8 2148.82,-125.8 2148.82,-125.8"/>
<polygon fill="black" stroke="black" points="2148.82,-129.3 2158.82,-125.8 2148.82,-122.3 2148.82,-129.3"/>
</g>
<!-- MatrixContainerComponent -->
<g id="node15" class="node">
<title>MatrixContainerComponent</title>
<polygon fill="#ffffb3" stroke="black" points="1308.14,-84.8 1133.86,-84.8 1133.86,-48.8 1308.14,-48.8 1308.14,-84.8"/>
<text text-anchor="middle" x="1221" y="-62.6" font-family="Times,serif" font-size="14.00">MatrixContainerComponent</text>
</g>
<!-- MatrixContainerComponent&#45;&gt;KhiopsCovisualizationModule -->
<g id="edge15" class="edge">
<title>MatrixContainerComponent&#45;&gt;KhiopsCovisualizationModule</title>
<path fill="none" stroke="black" d="M1221,-85.07C1221,-103.36 1221,-128.8 1221,-128.8 1221,-128.8 2148.68,-128.8 2148.68,-128.8"/>
<polygon fill="black" stroke="black" points="2148.68,-132.3 2158.68,-128.8 2148.68,-125.3 2148.68,-132.3"/>
</g>
<!-- ProjectViewComponent -->
<g id="node16" class="node">
<title>ProjectViewComponent</title>
<polygon fill="#ffffb3" stroke="black" points="1115.81,-84.8 964.19,-84.8 964.19,-48.8 1115.81,-48.8 1115.81,-84.8"/>
<text text-anchor="middle" x="1040" y="-62.6" font-family="Times,serif" font-size="14.00">ProjectViewComponent</text>
</g>
<!-- ProjectViewComponent&#45;&gt;KhiopsCovisualizationModule -->
<g id="edge16" class="edge">
<title>ProjectViewComponent&#45;&gt;KhiopsCovisualizationModule</title>
<path fill="none" stroke="black" d="M1040,-84.91C1040,-104.14 1040,-131.8 1040,-131.8 1040,-131.8 2149.08,-131.8 2149.08,-131.8"/>
<polygon fill="black" stroke="black" points="2149.08,-135.3 2159.08,-131.8 2149.08,-128.3 2149.08,-135.3"/>
</g>
<!-- SelectedClustersComponent -->
<g id="node17" class="node">
<title>SelectedClustersComponent</title>
<polygon fill="#ffffb3" stroke="black" points="946.14,-84.8 771.86,-84.8 771.86,-48.8 946.14,-48.8 946.14,-84.8"/>
<text text-anchor="middle" x="859" y="-62.6" font-family="Times,serif" font-size="14.00">SelectedClustersComponent</text>
</g>
<!-- SelectedClustersComponent&#45;&gt;KhiopsCovisualizationModule -->
<g id="edge17" class="edge">
<title>SelectedClustersComponent&#45;&gt;KhiopsCovisualizationModule</title>
<path fill="none" stroke="black" d="M859,-85.02C859,-105.17 859,-134.8 859,-134.8 859,-134.8 2149.1,-134.8 2149.1,-134.8"/>
<polygon fill="black" stroke="black" points="2149.1,-138.3 2159.1,-134.8 2149.1,-131.3 2149.1,-138.3"/>
</g>
<!-- TreeSelectComponent -->
<g id="node18" class="node">
<title>TreeSelectComponent</title>
<polygon fill="#ffffb3" stroke="black" points="753.68,-84.8 612.32,-84.8 612.32,-48.8 753.68,-48.8 753.68,-84.8"/>
<text text-anchor="middle" x="683" y="-62.6" font-family="Times,serif" font-size="14.00">TreeSelectComponent</text>
</g>
<!-- TreeSelectComponent&#45;&gt;KhiopsCovisualizationModule -->
<g id="edge18" class="edge">
<title>TreeSelectComponent&#45;&gt;KhiopsCovisualizationModule</title>
<path fill="none" stroke="black" d="M683,-85.08C683,-106.12 683,-137.8 683,-137.8 683,-137.8 2148.91,-137.8 2148.91,-137.8"/>
<polygon fill="black" stroke="black" points="2148.91,-141.3 2158.91,-137.8 2148.91,-134.3 2148.91,-141.3"/>
</g>
<!-- UnfoldHierarchyComponent -->
<g id="node19" class="node">
<title>UnfoldHierarchyComponent</title>
<polygon fill="#ffffb3" stroke="black" points="594.46,-84.8 417.54,-84.8 417.54,-48.8 594.46,-48.8 594.46,-84.8"/>
<text text-anchor="middle" x="506" y="-62.6" font-family="Times,serif" font-size="14.00">UnfoldHierarchyComponent</text>
</g>
<!-- UnfoldHierarchyComponent&#45;&gt;KhiopsCovisualizationModule -->
<g id="edge19" class="edge">
<title>UnfoldHierarchyComponent&#45;&gt;KhiopsCovisualizationModule</title>
<path fill="none" stroke="black" d="M506,-85.09C506,-107.01 506,-140.8 506,-140.8 506,-140.8 2149.07,-140.8 2149.07,-140.8"/>
<polygon fill="black" stroke="black" points="2149.07,-144.3 2159.07,-140.8 2149.07,-137.3 2149.07,-144.3"/>
</g>
<!-- UserSettingsComponent -->
<g id="node20" class="node">
<title>UserSettingsComponent</title>
<polygon fill="#ffffb3" stroke="black" points="399.38,-84.8 246.62,-84.8 246.62,-48.8 399.38,-48.8 399.38,-84.8"/>
<text text-anchor="middle" x="323" y="-62.6" font-family="Times,serif" font-size="14.00">UserSettingsComponent</text>
</g>
<!-- UserSettingsComponent&#45;&gt;KhiopsCovisualizationModule -->
<g id="edge20" class="edge">
<title>UserSettingsComponent&#45;&gt;KhiopsCovisualizationModule</title>
<path fill="none" stroke="black" d="M323,-85.05C323,-107.82 323,-143.8 323,-143.8 323,-143.8 2148.93,-143.8 2148.93,-143.8"/>
<polygon fill="black" stroke="black" points="2148.93,-147.3 2158.93,-143.8 2148.93,-140.3 2148.93,-147.3"/>
</g>
<!-- VariableGraphDetailsComponent -->
<g id="node21" class="node">
<title>VariableGraphDetailsComponent</title>
<polygon fill="#ffffb3" stroke="black" points="228.17,-84.8 23.83,-84.8 23.83,-48.8 228.17,-48.8 228.17,-84.8"/>
<text text-anchor="middle" x="126" y="-62.6" font-family="Times,serif" font-size="14.00">VariableGraphDetailsComponent</text>
</g>
<!-- VariableGraphDetailsComponent&#45;&gt;KhiopsCovisualizationModule -->
<g id="edge21" class="edge">
<title>VariableGraphDetailsComponent&#45;&gt;KhiopsCovisualizationModule</title>
<path fill="none" stroke="black" d="M126,-84.95C126,-108.56 126,-146.8 126,-146.8 126,-146.8 2148.86,-146.8 2148.86,-146.8"/>
<polygon fill="black" stroke="black" points="2148.86,-150.3 2158.86,-146.8 2148.86,-143.3 2148.86,-150.3"/>
</g>
<!-- AppComponent  -->
<g id="node24" class="node">
<title>AppComponent </title>
<polygon fill="#80b1d3" stroke="black" points="2307.44,-214.8 2198.56,-214.8 2198.56,-178.8 2307.44,-178.8 2307.44,-214.8"/>
<text text-anchor="middle" x="2253" y="-192.6" font-family="Times,serif" font-size="14.00">AppComponent </text>
</g>
<!-- KhiopsCovisualizationModule&#45;&gt;AppComponent  -->
<g id="edge24" class="edge">
<title>KhiopsCovisualizationModule&#45;&gt;AppComponent </title>
<path fill="none" stroke="black" stroke-dasharray="1,5" d="M2253,-149.91C2253,-149.91 2253,-168.79 2253,-168.79"/>
<polygon fill="black" stroke="black" points="2249.5,-168.79 2253,-178.79 2256.5,-168.79 2249.5,-168.79"/>
</g>
<!-- KhiopsLibraryModule -->
<g id="node23" class="node">
<title>KhiopsLibraryModule</title>
<polygon fill="#8dd3c7" stroke="black" points="4078.98,-84.8 4075.98,-88.8 4054.98,-88.8 4051.98,-84.8 3937.02,-84.8 3937.02,-48.8 4078.98,-48.8 4078.98,-84.8"/>
<text text-anchor="middle" x="4008" y="-62.6" font-family="Times,serif" font-size="14.00">KhiopsLibraryModule</text>
</g>
<!-- KhiopsLibraryModule&#45;&gt;KhiopsCovisualizationModule -->
<g id="edge22" class="edge">
<title>KhiopsLibraryModule&#45;&gt;KhiopsCovisualizationModule</title>
<path fill="none" stroke="black" d="M3984.34,-85.05C3984.34,-107.82 3984.34,-143.8 3984.34,-143.8 3984.34,-143.8 2357.01,-143.8 2357.01,-143.8"/>
<polygon fill="black" stroke="black" points="2357.01,-140.3 2347.01,-143.8 2357.01,-147.3 2357.01,-140.3"/>
</g>
<!-- KhiopsLibraryModule&#45;&gt;KhiopsCovisualizationModule -->
<g id="edge23" class="edge">
<title>KhiopsLibraryModule&#45;&gt;KhiopsCovisualizationModule</title>
<path fill="none" stroke="black" d="M4031.66,-84.95C4031.66,-108.56 4031.66,-146.8 4031.66,-146.8 4031.66,-146.8 2357.06,-146.8 2357.06,-146.8"/>
<polygon fill="black" stroke="black" points="2357.06,-143.3 2347.06,-146.8 2357.06,-150.3 2357.06,-143.3"/>
</g>
<!-- ElectronService -->
<g id="node25" class="node">
<title>ElectronService</title>
<ellipse fill="#fdb462" stroke="black" cx="3840" cy="-66.8" rx="72.91" ry="18"/>
<text text-anchor="middle" x="3840" y="-62.6" font-family="Times,serif" font-size="14.00">ElectronService</text>
</g>
<!-- ElectronService&#45;&gt;KhiopsCovisualizationModule -->
<g id="edge25" class="edge">
<title>ElectronService&#45;&gt;KhiopsCovisualizationModule</title>
<path fill="none" stroke="black" d="M3840,-85.09C3840,-107.01 3840,-140.8 3840,-140.8 3840,-140.8 2356.93,-140.8 2356.93,-140.8"/>
<polygon fill="black" stroke="black" points="2356.93,-137.3 2346.93,-140.8 2356.93,-144.3 2356.93,-137.3"/>
</g>
</g>
</svg>
