<?xml version="1.0" encoding="UTF-8" standalone="no"?>
<!DOCTYPE svg PUBLIC "-//W3C//DTD SVG 1.1//EN"
 "http://www.w3.org/Graphics/SVG/1.1/DTD/svg11.dtd">
<!-- Generated by graphviz version 5.0.0 (20220707.1540)
 -->
<!-- Title: dependencies Pages: 1 -->
<svg width="4763pt" height="247pt"
 viewBox="0.00 0.00 4763.00 246.80" xmlns="http://www.w3.org/2000/svg" xmlns:xlink="http://www.w3.org/1999/xlink">
<g id="graph0" class="graph" transform="scale(1 1) rotate(0) translate(4 242.8)">
<title>dependencies</title>
<polygon fill="white" stroke="transparent" points="-4,4 -4,-242.8 4759,-242.8 4759,4 -4,4"/>
<text text-anchor="middle" x="2377.5" y="-8.2" font-family="sans-serif" font-size="14.00">dependencies</text>
<g id="clust1" class="cluster">
<title>cluster_KhiopsVisualizationModule</title>
<polygon fill="none" stroke="black" stroke-dasharray="1,5" points="8,-32.8 8,-230.8 4747,-230.8 4747,-32.8 8,-32.8"/>
</g>
<g id="clust2" class="cluster">
<title>cluster_KhiopsVisualizationModule_declarations</title>
<polygon fill="none" stroke="black" points="352,-40.8 352,-92.8 4739,-92.8 4739,-40.8 352,-40.8"/>
</g>
<g id="clust24" class="cluster">
<title>cluster_KhiopsVisualizationModule_imports</title>
<polygon fill="none" stroke="black" points="186,-40.8 186,-92.8 344,-92.8 344,-40.8 186,-40.8"/>
</g>
<g id="clust26" class="cluster">
<title>cluster_KhiopsVisualizationModule_bootstrap</title>
<polygon fill="none" stroke="black" points="2203,-170.8 2203,-222.8 2327,-222.8 2327,-170.8 2203,-170.8"/>
</g>
<g id="clust27" class="cluster">
<title>cluster_KhiopsVisualizationModule_providers</title>
<polygon fill="none" stroke="black" points="16,-40.8 16,-92.8 178,-92.8 178,-40.8 16,-40.8"/>
</g>
<!-- AppComponent -->
<g id="node1" class="node">
<title>AppComponent</title>
<polygon fill="#ffffb3" stroke="black" points="4730.94,-84.8 4625.06,-84.8 4625.06,-48.8 4730.94,-48.8 4730.94,-84.8"/>
<text text-anchor="middle" x="4678" y="-62.6" font-family="Times,serif" font-size="14.00">AppComponent</text>
</g>
<!-- KhiopsVisualizationModule -->
<g id="node22" class="node">
<title>KhiopsVisualizationModule</title>
<polygon fill="#8dd3c7" stroke="black" points="2352.15,-149.8 2349.15,-153.8 2328.15,-153.8 2325.15,-149.8 2177.85,-149.8 2177.85,-113.8 2352.15,-113.8 2352.15,-149.8"/>
<text text-anchor="middle" x="2265" y="-127.6" font-family="Times,serif" font-size="14.00">KhiopsVisualizationModule</text>
</g>
<!-- AppComponent&#45;&gt;KhiopsVisualizationModule -->
<g id="edge1" class="edge">
<title>AppComponent&#45;&gt;KhiopsVisualizationModule</title>
<path fill="none" stroke="black" d="M4678,-84.95C4678,-108.56 4678,-146.8 4678,-146.8 4678,-146.8 2362.31,-146.8 2362.31,-146.8"/>
<polygon fill="black" stroke="black" points="2362.31,-143.3 2352.31,-146.8 2362.31,-150.3 2362.31,-143.3"/>
</g>
<!-- CoocurenceMatrixComponent -->
<g id="node2" class="node">
<title>CoocurenceMatrixComponent</title>
<polygon fill="#ffffb3" stroke="black" points="4607.29,-84.8 4420.71,-84.8 4420.71,-48.8 4607.29,-48.8 4607.29,-84.8"/>
<text text-anchor="middle" x="4514" y="-62.6" font-family="Times,serif" font-size="14.00">CoocurenceMatrixComponent</text>
</g>
<!-- CoocurenceMatrixComponent&#45;&gt;KhiopsVisualizationModule -->
<g id="edge2" class="edge">
<title>CoocurenceMatrixComponent&#45;&gt;KhiopsVisualizationModule</title>
<path fill="none" stroke="black" d="M4514,-85.05C4514,-107.82 4514,-143.8 4514,-143.8 4514,-143.8 2362.47,-143.8 2362.47,-143.8"/>
<polygon fill="black" stroke="black" points="2362.47,-140.3 2352.47,-143.8 2362.47,-147.3 2362.47,-140.3"/>
</g>
<!-- DescriptionBlockComponent -->
<g id="node3" class="node">
<title>DescriptionBlockComponent</title>
<polygon fill="#ffffb3" stroke="black" points="4403.09,-84.8 4222.91,-84.8 4222.91,-48.8 4403.09,-48.8 4403.09,-84.8"/>
<text text-anchor="middle" x="4313" y="-62.6" font-family="Times,serif" font-size="14.00">DescriptionBlockComponent</text>
</g>
<!-- DescriptionBlockComponent&#45;&gt;KhiopsVisualizationModule -->
<g id="edge3" class="edge">
<title>DescriptionBlockComponent&#45;&gt;KhiopsVisualizationModule</title>
<path fill="none" stroke="black" d="M4313,-85.09C4313,-107.01 4313,-140.8 4313,-140.8 4313,-140.8 2362.34,-140.8 2362.34,-140.8"/>
<polygon fill="black" stroke="black" points="2362.34,-137.3 2352.34,-140.8 2362.34,-144.3 2362.34,-137.3"/>
</g>
<!-- EvaluationViewComponent -->
<g id="node4" class="node">
<title>EvaluationViewComponent</title>
<polygon fill="#ffffb3" stroke="black" points="4205.3,-84.8 4032.7,-84.8 4032.7,-48.8 4205.3,-48.8 4205.3,-84.8"/>
<text text-anchor="middle" x="4119" y="-62.6" font-family="Times,serif" font-size="14.00">EvaluationViewComponent</text>
</g>
<!-- EvaluationViewComponent&#45;&gt;KhiopsVisualizationModule -->
<g id="edge4" class="edge">
<title>EvaluationViewComponent&#45;&gt;KhiopsVisualizationModule</title>
<path fill="none" stroke="black" d="M4119,-85.08C4119,-106.12 4119,-137.8 4119,-137.8 4119,-137.8 2362.24,-137.8 2362.24,-137.8"/>
<polygon fill="black" stroke="black" points="2362.24,-134.3 2352.24,-137.8 2362.24,-141.3 2362.24,-134.3"/>
</g>
<!-- LevelDistributionGraphCanvasComponent -->
<g id="node5" class="node">
<title>LevelDistributionGraphCanvasComponent</title>
<polygon fill="#ffffb3" stroke="black" points="4014.57,-84.8 3757.43,-84.8 3757.43,-48.8 4014.57,-48.8 4014.57,-84.8"/>
<text text-anchor="middle" x="3886" y="-62.6" font-family="Times,serif" font-size="14.00">LevelDistributionGraphCanvasComponent</text>
</g>
<!-- LevelDistributionGraphCanvasComponent&#45;&gt;KhiopsVisualizationModule -->
<g id="edge5" class="edge">
<title>LevelDistributionGraphCanvasComponent&#45;&gt;KhiopsVisualizationModule</title>
<path fill="none" stroke="black" d="M3886,-85.02C3886,-105.17 3886,-134.8 3886,-134.8 3886,-134.8 2362.15,-134.8 2362.15,-134.8"/>
<polygon fill="black" stroke="black" points="2362.15,-131.3 2352.15,-134.8 2362.15,-138.3 2362.15,-131.3"/>
</g>
<!-- ModelingViewComponent -->
<g id="node6" class="node">
<title>ModelingViewComponent</title>
<polygon fill="#ffffb3" stroke="black" points="3739.1,-84.8 3572.9,-84.8 3572.9,-48.8 3739.1,-48.8 3739.1,-84.8"/>
<text text-anchor="middle" x="3656" y="-62.6" font-family="Times,serif" font-size="14.00">ModelingViewComponent</text>
</g>
<!-- ModelingViewComponent&#45;&gt;KhiopsVisualizationModule -->
<g id="edge6" class="edge">
<title>ModelingViewComponent&#45;&gt;KhiopsVisualizationModule</title>
<path fill="none" stroke="black" d="M3656,-84.91C3656,-104.14 3656,-131.8 3656,-131.8 3656,-131.8 2362.28,-131.8 2362.28,-131.8"/>
<polygon fill="black" stroke="black" points="2362.28,-128.3 2352.28,-131.8 2362.28,-135.3 2362.28,-128.3"/>
</g>
<!-- Preparation2dViewComponent -->
<g id="node7" class="node">
<title>Preparation2dViewComponent</title>
<polygon fill="#ffffb3" stroke="black" points="3555.19,-84.8 3364.81,-84.8 3364.81,-48.8 3555.19,-48.8 3555.19,-84.8"/>
<text text-anchor="middle" x="3460" y="-62.6" font-family="Times,serif" font-size="14.00">Preparation2dViewComponent</text>
</g>
<!-- Preparation2dViewComponent&#45;&gt;KhiopsVisualizationModule -->
<g id="edge7" class="edge">
<title>Preparation2dViewComponent&#45;&gt;KhiopsVisualizationModule</title>
<path fill="none" stroke="black" d="M3460,-85.07C3460,-103.36 3460,-128.8 3460,-128.8 3460,-128.8 2362.39,-128.8 2362.39,-128.8"/>
<polygon fill="black" stroke="black" points="2362.39,-125.3 2352.39,-128.8 2362.39,-132.3 2362.39,-125.3"/>
</g>
<!-- PreparationViewComponent -->
<g id="node8" class="node">
<title>PreparationViewComponent</title>
<polygon fill="#ffffb3" stroke="black" points="3347.19,-84.8 3170.81,-84.8 3170.81,-48.8 3347.19,-48.8 3347.19,-84.8"/>
<text text-anchor="middle" x="3259" y="-62.6" font-family="Times,serif" font-size="14.00">PreparationViewComponent</text>
</g>
<!-- PreparationViewComponent&#45;&gt;KhiopsVisualizationModule -->
<g id="edge8" class="edge">
<title>PreparationViewComponent&#45;&gt;KhiopsVisualizationModule</title>
<path fill="none" stroke="black" d="M3259,-84.82C3259,-102.17 3259,-125.8 3259,-125.8 3259,-125.8 2362.34,-125.8 2362.34,-125.8"/>
<polygon fill="black" stroke="black" points="2362.34,-122.3 2352.34,-125.8 2362.34,-129.3 2362.34,-122.3"/>
</g>
<!-- RegressionMatrixComponent -->
<g id="node9" class="node">
<title>RegressionMatrixComponent</title>
<polygon fill="#ffffb3" stroke="black" points="3152.65,-84.8 2971.35,-84.8 2971.35,-48.8 3152.65,-48.8 3152.65,-84.8"/>
<text text-anchor="middle" x="3062" y="-62.6" font-family="Times,serif" font-size="14.00">RegressionMatrixComponent</text>
</g>
<!-- RegressionMatrixComponent&#45;&gt;KhiopsVisualizationModule -->
<g id="edge9" class="edge">
<title>RegressionMatrixComponent&#45;&gt;KhiopsVisualizationModule</title>
<path fill="none" stroke="black" d="M3062,-84.83C3062,-101.2 3062,-122.8 3062,-122.8 3062,-122.8 2362.19,-122.8 2362.19,-122.8"/>
<polygon fill="black" stroke="black" points="2362.19,-119.3 2352.19,-122.8 2362.19,-126.3 2362.19,-119.3"/>
</g>
<!-- SelectToggleButtonComponent -->
<g id="node10" class="node">
<title>SelectToggleButtonComponent</title>
<polygon fill="#ffffb3" stroke="black" points="2953.81,-84.8 2760.19,-84.8 2760.19,-48.8 2953.81,-48.8 2953.81,-84.8"/>
<text text-anchor="middle" x="2857" y="-62.6" font-family="Times,serif" font-size="14.00">SelectToggleButtonComponent</text>
</g>
<!-- SelectToggleButtonComponent&#45;&gt;KhiopsVisualizationModule -->
<g id="edge10" class="edge">
<title>SelectToggleButtonComponent&#45;&gt;KhiopsVisualizationModule</title>
<path fill="none" stroke="black" d="M2857,-85.04C2857,-100.37 2857,-119.8 2857,-119.8 2857,-119.8 2362.35,-119.8 2362.35,-119.8"/>
<polygon fill="black" stroke="black" points="2362.35,-116.3 2352.35,-119.8 2362.35,-123.3 2362.35,-116.3"/>
</g>
<!-- SelectTrainedPredictorComponent -->
<g id="node11" class="node">
<title>SelectTrainedPredictorComponent</title>
<polygon fill="#ffffb3" stroke="black" points="2742.39,-84.8 2531.61,-84.8 2531.61,-48.8 2742.39,-48.8 2742.39,-84.8"/>
<text text-anchor="middle" x="2637" y="-62.6" font-family="Times,serif" font-size="14.00">SelectTrainedPredictorComponent</text>
</g>
<!-- SelectTrainedPredictorComponent&#45;&gt;KhiopsVisualizationModule -->
<g id="edge11" class="edge">
<title>SelectTrainedPredictorComponent&#45;&gt;KhiopsVisualizationModule</title>
<path fill="none" stroke="black" d="M2637,-84.85C2637,-99.17 2637,-116.8 2637,-116.8 2637,-116.8 2362.22,-116.8 2362.22,-116.8"/>
<polygon fill="black" stroke="black" points="2362.22,-113.3 2352.22,-116.8 2362.22,-120.3 2362.22,-113.3"/>
</g>
<!-- TargetDistributionGraphCanvasComponent -->
<g id="node12" class="node">
<title>TargetDistributionGraphCanvasComponent</title>
<polygon fill="#ffffb3" stroke="black" points="2513.73,-84.8 2252.27,-84.8 2252.27,-48.8 2513.73,-48.8 2513.73,-84.8"/>
<text text-anchor="middle" x="2383" y="-62.6" font-family="Times,serif" font-size="14.00">TargetDistributionGraphCanvasComponent</text>
</g>
<!-- TargetDistributionGraphCanvasComponent&#45;&gt;KhiopsVisualizationModule -->
<g id="edge12" class="edge">
<title>TargetDistributionGraphCanvasComponent&#45;&gt;KhiopsVisualizationModule</title>
<path fill="none" stroke="black" d="M2302.23,-84.91C2302.23,-84.91 2302.23,-103.79 2302.23,-103.79"/>
<polygon fill="black" stroke="black" points="2298.73,-103.79 2302.23,-113.79 2305.73,-103.79 2298.73,-103.79"/>
</g>
<!-- TargetLiftGraphComponent -->
<g id="node13" class="node">
<title>TargetLiftGraphComponent</title>
<polygon fill="#ffffb3" stroke="black" points="2233.84,-84.8 2060.16,-84.8 2060.16,-48.8 2233.84,-48.8 2233.84,-84.8"/>
<text text-anchor="middle" x="2147" y="-62.6" font-family="Times,serif" font-size="14.00">TargetLiftGraphComponent</text>
</g>
<!-- TargetLiftGraphComponent&#45;&gt;KhiopsVisualizationModule -->
<g id="edge13" class="edge">
<title>TargetLiftGraphComponent&#45;&gt;KhiopsVisualizationModule</title>
<path fill="none" stroke="black" d="M2205.8,-84.91C2205.8,-84.91 2205.8,-103.79 2205.8,-103.79"/>
<polygon fill="black" stroke="black" points="2202.3,-103.79 2205.8,-113.79 2209.3,-103.79 2202.3,-103.79"/>
</g>
<!-- TargetVariableStatsCanvasComponent -->
<g id="node14" class="node">
<title>TargetVariableStatsCanvasComponent</title>
<polygon fill="#ffffb3" stroke="black" points="2042.5,-84.8 1807.5,-84.8 1807.5,-48.8 2042.5,-48.8 2042.5,-84.8"/>
<text text-anchor="middle" x="1925" y="-62.6" font-family="Times,serif" font-size="14.00">TargetVariableStatsCanvasComponent</text>
</g>
<!-- TargetVariableStatsCanvasComponent&#45;&gt;KhiopsVisualizationModule -->
<g id="edge14" class="edge">
<title>TargetVariableStatsCanvasComponent&#45;&gt;KhiopsVisualizationModule</title>
<path fill="none" stroke="black" d="M1925,-84.85C1925,-99.17 1925,-116.8 1925,-116.8 1925,-116.8 2167.44,-116.8 2167.44,-116.8"/>
<polygon fill="black" stroke="black" points="2167.44,-120.3 2177.44,-116.8 2167.44,-113.3 2167.44,-120.3"/>
</g>
<!-- TreeDetailsComponent -->
<g id="node15" class="node">
<title>TreeDetailsComponent</title>
<polygon fill="#ffffb3" stroke="black" points="1789.13,-84.8 1642.87,-84.8 1642.87,-48.8 1789.13,-48.8 1789.13,-84.8"/>
<text text-anchor="middle" x="1716" y="-62.6" font-family="Times,serif" font-size="14.00">TreeDetailsComponent</text>
</g>
<!-- TreeDetailsComponent&#45;&gt;KhiopsVisualizationModule -->
<g id="edge15" class="edge">
<title>TreeDetailsComponent&#45;&gt;KhiopsVisualizationModule</title>
<path fill="none" stroke="black" d="M1716,-85.04C1716,-100.37 1716,-119.8 1716,-119.8 1716,-119.8 2167.71,-119.8 2167.71,-119.8"/>
<polygon fill="black" stroke="black" points="2167.71,-123.3 2177.71,-119.8 2167.71,-116.3 2167.71,-123.3"/>
</g>
<!-- TreeHyperComponent -->
<g id="node16" class="node">
<title>TreeHyperComponent</title>
<polygon fill="#ffffb3" stroke="black" points="1624.96,-84.8 1483.04,-84.8 1483.04,-48.8 1624.96,-48.8 1624.96,-84.8"/>
<text text-anchor="middle" x="1554" y="-62.6" font-family="Times,serif" font-size="14.00">TreeHyperComponent</text>
</g>
<!-- TreeHyperComponent&#45;&gt;KhiopsVisualizationModule -->
<g id="edge16" class="edge">
<title>TreeHyperComponent&#45;&gt;KhiopsVisualizationModule</title>
<path fill="none" stroke="black" d="M1554,-84.83C1554,-101.2 1554,-122.8 1554,-122.8 1554,-122.8 2167.82,-122.8 2167.82,-122.8"/>
<polygon fill="black" stroke="black" points="2167.82,-126.3 2177.82,-122.8 2167.82,-119.3 2167.82,-126.3"/>
</g>
<!-- TreeLeafDetailsComponent -->
<g id="node17" class="node">
<title>TreeLeafDetailsComponent</title>
<polygon fill="#ffffb3" stroke="black" points="1465.27,-84.8 1292.73,-84.8 1292.73,-48.8 1465.27,-48.8 1465.27,-84.8"/>
<text text-anchor="middle" x="1379" y="-62.6" font-family="Times,serif" font-size="14.00">TreeLeafDetailsComponent</text>
</g>
<!-- TreeLeafDetailsComponent&#45;&gt;KhiopsVisualizationModule -->
<g id="edge17" class="edge">
<title>TreeLeafDetailsComponent&#45;&gt;KhiopsVisualizationModule</title>
<path fill="none" stroke="black" d="M1379,-84.82C1379,-102.17 1379,-125.8 1379,-125.8 1379,-125.8 2167.62,-125.8 2167.62,-125.8"/>
<polygon fill="black" stroke="black" points="2167.62,-129.3 2177.62,-125.8 2167.62,-122.3 2167.62,-129.3"/>
</g>
<!-- TreePreparationViewComponent -->
<g id="node18" class="node">
<title>TreePreparationViewComponent</title>
<polygon fill="#ffffb3" stroke="black" points="1274.83,-84.8 1073.17,-84.8 1073.17,-48.8 1274.83,-48.8 1274.83,-84.8"/>
<text text-anchor="middle" x="1174" y="-62.6" font-family="Times,serif" font-size="14.00">TreePreparationViewComponent</text>
</g>
<!-- TreePreparationViewComponent&#45;&gt;KhiopsVisualizationModule -->
<g id="edge18" class="edge">
<title>TreePreparationViewComponent&#45;&gt;KhiopsVisualizationModule</title>
<path fill="none" stroke="black" d="M1174,-85.07C1174,-103.36 1174,-128.8 1174,-128.8 1174,-128.8 2167.56,-128.8 2167.56,-128.8"/>
<polygon fill="black" stroke="black" points="2167.56,-132.3 2177.56,-128.8 2167.56,-125.3 2167.56,-132.3"/>
</g>
<!-- VarDetailsPreparation2dComponent -->
<g id="node19" class="node">
<title>VarDetailsPreparation2dComponent</title>
<polygon fill="#ffffb3" stroke="black" points="1055,-84.8 835,-84.8 835,-48.8 1055,-48.8 1055,-84.8"/>
<text text-anchor="middle" x="945" y="-62.6" font-family="Times,serif" font-size="14.00">VarDetailsPreparation2dComponent</text>
</g>
<!-- VarDetailsPreparation2dComponent&#45;&gt;KhiopsVisualizationModule -->
<g id="edge19" class="edge">
<title>VarDetailsPreparation2dComponent&#45;&gt;KhiopsVisualizationModule</title>
<path fill="none" stroke="black" d="M945,-84.91C945,-104.14 945,-131.8 945,-131.8 945,-131.8 2167.62,-131.8 2167.62,-131.8"/>
<polygon fill="black" stroke="black" points="2167.62,-135.3 2177.62,-131.8 2167.62,-128.3 2167.62,-135.3"/>
</g>
<!-- VarDetailsPreparationComponent -->
<g id="node20" class="node">
<title>VarDetailsPreparationComponent</title>
<polygon fill="#ffffb3" stroke="black" points="816,-84.8 610,-84.8 610,-48.8 816,-48.8 816,-84.8"/>
<text text-anchor="middle" x="713" y="-62.6" font-family="Times,serif" font-size="14.00">VarDetailsPreparationComponent</text>
</g>
<!-- VarDetailsPreparationComponent&#45;&gt;KhiopsVisualizationModule -->
<g id="edge20" class="edge">
<title>VarDetailsPreparationComponent&#45;&gt;KhiopsVisualizationModule</title>
<path fill="none" stroke="black" d="M713,-85.02C713,-105.17 713,-134.8 713,-134.8 713,-134.8 2167.67,-134.8 2167.67,-134.8"/>
<polygon fill="black" stroke="black" points="2167.67,-138.3 2177.67,-134.8 2167.67,-131.3 2167.67,-138.3"/>
</g>
<!-- VarDetailsTreePreparationComponent -->
<g id="node21" class="node">
<title>VarDetailsTreePreparationComponent</title>
<polygon fill="#ffffb3" stroke="black" points="592.15,-84.8 359.85,-84.8 359.85,-48.8 592.15,-48.8 592.15,-84.8"/>
<text text-anchor="middle" x="476" y="-62.6" font-family="Times,serif" font-size="14.00">VarDetailsTreePreparationComponent</text>
</g>
<!-- VarDetailsTreePreparationComponent&#45;&gt;KhiopsVisualizationModule -->
<g id="edge21" class="edge">
<title>VarDetailsTreePreparationComponent&#45;&gt;KhiopsVisualizationModule</title>
<path fill="none" stroke="black" d="M476,-85.08C476,-106.12 476,-137.8 476,-137.8 476,-137.8 2167.81,-137.8 2167.81,-137.8"/>
<polygon fill="black" stroke="black" points="2167.81,-141.3 2177.81,-137.8 2167.81,-134.3 2167.81,-141.3"/>
</g>
<!-- AppComponent  -->
<g id="node24" class="node">
<title>AppComponent </title>
<polygon fill="#80b1d3" stroke="black" points="2319.44,-214.8 2210.56,-214.8 2210.56,-178.8 2319.44,-178.8 2319.44,-214.8"/>
<text text-anchor="middle" x="2265" y="-192.6" font-family="Times,serif" font-size="14.00">AppComponent </text>
</g>
<!-- KhiopsVisualizationModule&#45;&gt;AppComponent  -->
<g id="edge24" class="edge">
<title>KhiopsVisualizationModule&#45;&gt;AppComponent </title>
<path fill="none" stroke="black" stroke-dasharray="1,5" d="M2265,-149.91C2265,-149.91 2265,-168.79 2265,-168.79"/>
<polygon fill="black" stroke="black" points="2261.5,-168.79 2265,-178.79 2268.5,-168.79 2261.5,-168.79"/>
</g>
<!-- KhiopsLibraryModule -->
<g id="node23" class="node">
<title>KhiopsLibraryModule</title>
<polygon fill="#8dd3c7" stroke="black" points="335.98,-84.8 332.98,-88.8 311.98,-88.8 308.98,-84.8 194.02,-84.8 194.02,-48.8 335.98,-48.8 335.98,-84.8"/>
<text text-anchor="middle" x="265" y="-62.6" font-family="Times,serif" font-size="14.00">KhiopsLibraryModule</text>
</g>
<!-- KhiopsLibraryModule&#45;&gt;KhiopsVisualizationModule -->
<g id="edge22" class="edge">
<title>KhiopsLibraryModule&#45;&gt;KhiopsVisualizationModule</title>
<path fill="none" stroke="black" d="M241.34,-85.05C241.34,-107.82 241.34,-143.8 241.34,-143.8 241.34,-143.8 2167.72,-143.8 2167.72,-143.8"/>
<polygon fill="black" stroke="black" points="2167.72,-147.3 2177.72,-143.8 2167.72,-140.3 2167.72,-147.3"/>
</g>
<!-- KhiopsLibraryModule&#45;&gt;KhiopsVisualizationModule -->
<g id="edge23" class="edge">
<title>KhiopsLibraryModule&#45;&gt;KhiopsVisualizationModule</title>
<path fill="none" stroke="black" d="M288.66,-85.09C288.66,-107.01 288.66,-140.8 288.66,-140.8 288.66,-140.8 2167.85,-140.8 2167.85,-140.8"/>
<polygon fill="black" stroke="black" points="2167.85,-144.3 2177.85,-140.8 2167.85,-137.3 2167.85,-144.3"/>
</g>
<!-- ElectronService -->
<g id="node25" class="node">
<title>ElectronService</title>
<ellipse fill="#fdb462" stroke="black" cx="97" cy="-66.8" rx="72.91" ry="18"/>
<text text-anchor="middle" x="97" y="-62.6" font-family="Times,serif" font-size="14.00">ElectronService</text>
</g>
<!-- ElectronService&#45;&gt;KhiopsVisualizationModule -->
<g id="edge25" class="edge">
<title>ElectronService&#45;&gt;KhiopsVisualizationModule</title>
<path fill="none" stroke="black" d="M97,-84.95C97,-108.56 97,-146.8 97,-146.8 97,-146.8 2167.66,-146.8 2167.66,-146.8"/>
<polygon fill="black" stroke="black" points="2167.66,-150.3 2177.66,-146.8 2167.66,-143.3 2167.66,-150.3"/>
</g>
</g>
</svg>
