<?xml version="1.0" encoding="UTF-8" standalone="no"?>
<!DOCTYPE svg PUBLIC "-//W3C//DTD SVG 1.1//EN"
 "http://www.w3.org/Graphics/SVG/1.1/DTD/svg11.dtd">
<!-- Generated by graphviz version 5.0.0 (20220707.1540)
 -->
<!-- Title: dependencies Pages: 1 -->
<svg width="5634pt" height="247pt"
 viewBox="0.00 0.00 5634.00 246.80" xmlns="http://www.w3.org/2000/svg" xmlns:xlink="http://www.w3.org/1999/xlink">
<g id="graph0" class="graph" transform="scale(1 1) rotate(0) translate(4 242.8)">
<title>dependencies</title>
<polygon fill="white" stroke="transparent" points="-4,4 -4,-242.8 5630,-242.8 5630,4 -4,4"/>
<text text-anchor="middle" x="2813" y="-8.2" font-family="sans-serif" font-size="14.00">dependencies</text>
<g id="clust1" class="cluster">
<title>cluster_KhiopsVisualizationModule</title>
<polygon fill="none" stroke="black" stroke-dasharray="1,5" points="8,-32.8 8,-230.8 5618,-230.8 5618,-32.8 8,-32.8"/>
</g>
<g id="clust29" class="cluster">
<title>cluster_KhiopsVisualizationModule_imports</title>
<polygon fill="none" stroke="black" points="5306,-40.8 5306,-92.8 5610,-92.8 5610,-40.8 5306,-40.8"/>
</g>
<g id="clust31" class="cluster">
<title>cluster_KhiopsVisualizationModule_bootstrap</title>
<polygon fill="none" stroke="black" points="2902,-170.8 2902,-222.8 3026,-222.8 3026,-170.8 2902,-170.8"/>
</g>
<g id="clust2" class="cluster">
<title>cluster_KhiopsVisualizationModule_declarations</title>
<polygon fill="none" stroke="black" points="16,-40.8 16,-92.8 5298,-92.8 5298,-40.8 16,-40.8"/>
</g>
<!-- AppComponent -->
<g id="node1" class="node">
<title>AppComponent</title>
<polygon fill="#ffffb3" stroke="black" points="5289.94,-84.8 5184.06,-84.8 5184.06,-48.8 5289.94,-48.8 5289.94,-84.8"/>
<text text-anchor="middle" x="5237" y="-62.6" font-family="Times,serif" font-size="14.00">AppComponent</text>
</g>
<!-- KhiopsVisualizationModule -->
<g id="node27" class="node">
<title>KhiopsVisualizationModule</title>
<polygon fill="#8dd3c7" stroke="black" points="3051.15,-149.8 3048.15,-153.8 3027.15,-153.8 3024.15,-149.8 2876.85,-149.8 2876.85,-113.8 3051.15,-113.8 3051.15,-149.8"/>
<text text-anchor="middle" x="2964" y="-127.6" font-family="Times,serif" font-size="14.00">KhiopsVisualizationModule</text>
</g>
<!-- AppComponent&#45;&gt;KhiopsVisualizationModule -->
<g id="edge1" class="edge">
<title>AppComponent&#45;&gt;KhiopsVisualizationModule</title>
<path fill="none" stroke="black" d="M5237,-84.81C5237,-107.29 5237,-142.8 5237,-142.8 5237,-142.8 3061.36,-142.8 3061.36,-142.8"/>
<polygon fill="black" stroke="black" points="3061.36,-139.3 3051.36,-142.8 3061.36,-146.3 3061.36,-139.3"/>
</g>
<!-- CoocurenceMatrixComponent -->
<g id="node2" class="node">
<title>CoocurenceMatrixComponent</title>
<polygon fill="#ffffb3" stroke="black" points="5166.29,-84.8 4979.71,-84.8 4979.71,-48.8 5166.29,-48.8 5166.29,-84.8"/>
<text text-anchor="middle" x="5073" y="-62.6" font-family="Times,serif" font-size="14.00">CoocurenceMatrixComponent</text>
</g>
<!-- CoocurenceMatrixComponent&#45;&gt;KhiopsVisualizationModule -->
<g id="edge2" class="edge">
<title>CoocurenceMatrixComponent&#45;&gt;KhiopsVisualizationModule</title>
<path fill="none" stroke="black" d="M5073,-84.84C5073,-106.46 5073,-139.8 5073,-139.8 5073,-139.8 3061.27,-139.8 3061.27,-139.8"/>
<polygon fill="black" stroke="black" points="3061.27,-136.3 3051.27,-139.8 3061.27,-143.3 3061.27,-136.3"/>
</g>
<!-- DescriptionBlockComponent -->
<g id="node3" class="node">
<title>DescriptionBlockComponent</title>
<polygon fill="#ffffb3" stroke="black" points="4962.09,-84.8 4781.91,-84.8 4781.91,-48.8 4962.09,-48.8 4962.09,-84.8"/>
<text text-anchor="middle" x="4872" y="-62.6" font-family="Times,serif" font-size="14.00">DescriptionBlockComponent</text>
</g>
<!-- DescriptionBlockComponent&#45;&gt;KhiopsVisualizationModule -->
<g id="edge3" class="edge">
<title>DescriptionBlockComponent&#45;&gt;KhiopsVisualizationModule</title>
<path fill="none" stroke="black" d="M4872,-85.08C4872,-106.12 4872,-137.8 4872,-137.8 4872,-137.8 3061.25,-137.8 3061.25,-137.8"/>
<polygon fill="black" stroke="black" points="3061.25,-134.3 3051.25,-137.8 3061.25,-141.3 3061.25,-134.3"/>
</g>
<!-- EvaluationViewComponent -->
<g id="node4" class="node">
<title>EvaluationViewComponent</title>
<polygon fill="#ffffb3" stroke="black" points="4764.3,-84.8 4591.7,-84.8 4591.7,-48.8 4764.3,-48.8 4764.3,-84.8"/>
<text text-anchor="middle" x="4678" y="-62.6" font-family="Times,serif" font-size="14.00">EvaluationViewComponent</text>
</g>
<!-- EvaluationViewComponent&#45;&gt;KhiopsVisualizationModule -->
<g id="edge4" class="edge">
<title>EvaluationViewComponent&#45;&gt;KhiopsVisualizationModule</title>
<path fill="none" stroke="black" d="M4678,-85.02C4678,-105.17 4678,-134.8 4678,-134.8 4678,-134.8 3061.35,-134.8 3061.35,-134.8"/>
<polygon fill="black" stroke="black" points="3061.35,-131.3 3051.35,-134.8 3061.35,-138.3 3061.35,-131.3"/>
</g>
<!-- HomeLayoutComponent -->
<g id="node5" class="node">
<title>HomeLayoutComponent</title>
<polygon fill="#ffffb3" stroke="black" points="4573.7,-84.8 4418.3,-84.8 4418.3,-48.8 4573.7,-48.8 4573.7,-84.8"/>
<text text-anchor="middle" x="4496" y="-62.6" font-family="Times,serif" font-size="14.00">HomeLayoutComponent</text>
</g>
<!-- HomeLayoutComponent&#45;&gt;KhiopsVisualizationModule -->
<g id="edge5" class="edge">
<title>HomeLayoutComponent&#45;&gt;KhiopsVisualizationModule</title>
<path fill="none" stroke="black" d="M4496,-84.91C4496,-104.14 4496,-131.8 4496,-131.8 4496,-131.8 3061.31,-131.8 3061.31,-131.8"/>
<polygon fill="black" stroke="black" points="3061.31,-128.3 3051.31,-131.8 3061.31,-135.3 3061.31,-128.3"/>
</g>
<!-- LevelDistributionGraphCanvasComponent -->
<g id="node6" class="node">
<title>LevelDistributionGraphCanvasComponent</title>
<polygon fill="#ffffb3" stroke="black" points="4400.57,-84.8 4143.43,-84.8 4143.43,-48.8 4400.57,-48.8 4400.57,-84.8"/>
<text text-anchor="middle" x="4272" y="-62.6" font-family="Times,serif" font-size="14.00">LevelDistributionGraphCanvasComponent</text>
</g>
<!-- LevelDistributionGraphCanvasComponent&#45;&gt;KhiopsVisualizationModule -->
<g id="edge6" class="edge">
<title>LevelDistributionGraphCanvasComponent&#45;&gt;KhiopsVisualizationModule</title>
<path fill="none" stroke="black" d="M4272,-85.02C4272,-103.63 4272,-129.8 4272,-129.8 4272,-129.8 3061.34,-129.8 3061.34,-129.8"/>
<polygon fill="black" stroke="black" points="3061.34,-126.3 3051.34,-129.8 3061.34,-133.3 3061.34,-126.3"/>
</g>
<!-- ModelingViewComponent -->
<g id="node7" class="node">
<title>ModelingViewComponent</title>
<polygon fill="#ffffb3" stroke="black" points="4125.1,-84.8 3958.9,-84.8 3958.9,-48.8 4125.1,-48.8 4125.1,-84.8"/>
<text text-anchor="middle" x="4042" y="-62.6" font-family="Times,serif" font-size="14.00">ModelingViewComponent</text>
</g>
<!-- ModelingViewComponent&#45;&gt;KhiopsVisualizationModule -->
<g id="edge7" class="edge">
<title>ModelingViewComponent&#45;&gt;KhiopsVisualizationModule</title>
<path fill="none" stroke="black" d="M4042,-84.8C4042,-102.48 4042,-126.8 4042,-126.8 4042,-126.8 3061.3,-126.8 3061.3,-126.8"/>
<polygon fill="black" stroke="black" points="3061.3,-123.3 3051.3,-126.8 3061.3,-130.3 3061.3,-123.3"/>
</g>
<!-- Preparation2dViewComponent -->
<g id="node8" class="node">
<title>Preparation2dViewComponent</title>
<polygon fill="#ffffb3" stroke="black" points="3941.19,-84.8 3750.81,-84.8 3750.81,-48.8 3941.19,-48.8 3941.19,-84.8"/>
<text text-anchor="middle" x="3846" y="-62.6" font-family="Times,serif" font-size="14.00">Preparation2dViewComponent</text>
</g>
<!-- Preparation2dViewComponent&#45;&gt;KhiopsVisualizationModule -->
<g id="edge8" class="edge">
<title>Preparation2dViewComponent&#45;&gt;KhiopsVisualizationModule</title>
<path fill="none" stroke="black" d="M3846,-84.83C3846,-101.86 3846,-124.8 3846,-124.8 3846,-124.8 3061.39,-124.8 3061.39,-124.8"/>
<polygon fill="black" stroke="black" points="3061.39,-121.3 3051.39,-124.8 3061.39,-128.3 3061.39,-121.3"/>
</g>
<!-- PreparationViewComponent -->
<g id="node9" class="node">
<title>PreparationViewComponent</title>
<polygon fill="#ffffb3" stroke="black" points="3733.19,-84.8 3556.81,-84.8 3556.81,-48.8 3733.19,-48.8 3733.19,-84.8"/>
<text text-anchor="middle" x="3645" y="-62.6" font-family="Times,serif" font-size="14.00">PreparationViewComponent</text>
</g>
<!-- PreparationViewComponent&#45;&gt;KhiopsVisualizationModule -->
<g id="edge9" class="edge">
<title>PreparationViewComponent&#45;&gt;KhiopsVisualizationModule</title>
<path fill="none" stroke="black" d="M3645,-84.81C3645,-100.85 3645,-121.8 3645,-121.8 3645,-121.8 3061.29,-121.8 3061.29,-121.8"/>
<polygon fill="black" stroke="black" points="3061.29,-118.3 3051.29,-121.8 3061.29,-125.3 3061.29,-118.3"/>
</g>
<!-- ProjectViewComponent -->
<g id="node10" class="node">
<title>ProjectViewComponent</title>
<polygon fill="#ffffb3" stroke="black" points="3538.81,-84.8 3387.19,-84.8 3387.19,-48.8 3538.81,-48.8 3538.81,-84.8"/>
<text text-anchor="middle" x="3463" y="-62.6" font-family="Times,serif" font-size="14.00">ProjectViewComponent</text>
</g>
<!-- ProjectViewComponent&#45;&gt;KhiopsVisualizationModule -->
<g id="edge10" class="edge">
<title>ProjectViewComponent&#45;&gt;KhiopsVisualizationModule</title>
<path fill="none" stroke="black" d="M3463,-85.04C3463,-100.37 3463,-119.8 3463,-119.8 3463,-119.8 3061.2,-119.8 3061.2,-119.8"/>
<polygon fill="black" stroke="black" points="3061.2,-116.3 3051.2,-119.8 3061.2,-123.3 3061.2,-116.3"/>
</g>
<!-- RegressionMatrixComponent -->
<g id="node11" class="node">
<title>RegressionMatrixComponent</title>
<polygon fill="#ffffb3" stroke="black" points="3369.65,-84.8 3188.35,-84.8 3188.35,-48.8 3369.65,-48.8 3369.65,-84.8"/>
<text text-anchor="middle" x="3279" y="-62.6" font-family="Times,serif" font-size="14.00">RegressionMatrixComponent</text>
</g>
<!-- RegressionMatrixComponent&#45;&gt;KhiopsVisualizationModule -->
<g id="edge11" class="edge">
<title>RegressionMatrixComponent&#45;&gt;KhiopsVisualizationModule</title>
<path fill="none" stroke="black" d="M3279,-84.85C3279,-99.17 3279,-116.8 3279,-116.8 3279,-116.8 3061.33,-116.8 3061.33,-116.8"/>
<polygon fill="black" stroke="black" points="3061.33,-113.3 3051.33,-116.8 3061.33,-120.3 3061.33,-113.3"/>
</g>
<!-- SelectToggleButtonComponent -->
<g id="node12" class="node">
<title>SelectToggleButtonComponent</title>
<polygon fill="#ffffb3" stroke="black" points="3170.81,-84.8 2977.19,-84.8 2977.19,-48.8 3170.81,-48.8 3170.81,-84.8"/>
<text text-anchor="middle" x="3074" y="-62.6" font-family="Times,serif" font-size="14.00">SelectToggleButtonComponent</text>
</g>
<!-- SelectToggleButtonComponent&#45;&gt;KhiopsVisualizationModule -->
<g id="edge12" class="edge">
<title>SelectToggleButtonComponent&#45;&gt;KhiopsVisualizationModule</title>
<path fill="none" stroke="black" d="M3014.33,-84.91C3014.33,-84.91 3014.33,-103.79 3014.33,-103.79"/>
<polygon fill="black" stroke="black" points="3010.83,-103.79 3014.33,-113.79 3017.83,-103.79 3010.83,-103.79"/>
</g>
<!-- SelectTrainedPredictorComponent -->
<g id="node13" class="node">
<title>SelectTrainedPredictorComponent</title>
<polygon fill="#ffffb3" stroke="black" points="2959.39,-84.8 2748.61,-84.8 2748.61,-48.8 2959.39,-48.8 2959.39,-84.8"/>
<text text-anchor="middle" x="2854" y="-62.6" font-family="Times,serif" font-size="14.00">SelectTrainedPredictorComponent</text>
</g>
<!-- SelectTrainedPredictorComponent&#45;&gt;KhiopsVisualizationModule -->
<g id="edge13" class="edge">
<title>SelectTrainedPredictorComponent&#45;&gt;KhiopsVisualizationModule</title>
<path fill="none" stroke="black" d="M2917.93,-84.91C2917.93,-84.91 2917.93,-103.79 2917.93,-103.79"/>
<polygon fill="black" stroke="black" points="2914.43,-103.79 2917.93,-113.79 2921.43,-103.79 2914.43,-103.79"/>
</g>
<!-- TargetDistributionGraphCanvasComponent -->
<g id="node14" class="node">
<title>TargetDistributionGraphCanvasComponent</title>
<polygon fill="#ffffb3" stroke="black" points="2730.73,-84.8 2469.27,-84.8 2469.27,-48.8 2730.73,-48.8 2730.73,-84.8"/>
<text text-anchor="middle" x="2600" y="-62.6" font-family="Times,serif" font-size="14.00">TargetDistributionGraphCanvasComponent</text>
</g>
<!-- TargetDistributionGraphCanvasComponent&#45;&gt;KhiopsVisualizationModule -->
<g id="edge14" class="edge">
<title>TargetDistributionGraphCanvasComponent&#45;&gt;KhiopsVisualizationModule</title>
<path fill="none" stroke="black" d="M2600,-84.85C2600,-99.17 2600,-116.8 2600,-116.8 2600,-116.8 2866.81,-116.8 2866.81,-116.8"/>
<polygon fill="black" stroke="black" points="2866.81,-120.3 2876.81,-116.8 2866.81,-113.3 2866.81,-120.3"/>
</g>
<!-- TargetLiftGraphComponent -->
<g id="node15" class="node">
<title>TargetLiftGraphComponent</title>
<polygon fill="#ffffb3" stroke="black" points="2450.84,-84.8 2277.16,-84.8 2277.16,-48.8 2450.84,-48.8 2450.84,-84.8"/>
<text text-anchor="middle" x="2364" y="-62.6" font-family="Times,serif" font-size="14.00">TargetLiftGraphComponent</text>
</g>
<!-- TargetLiftGraphComponent&#45;&gt;KhiopsVisualizationModule -->
<g id="edge15" class="edge">
<title>TargetLiftGraphComponent&#45;&gt;KhiopsVisualizationModule</title>
<path fill="none" stroke="black" d="M2364,-85.04C2364,-100.37 2364,-119.8 2364,-119.8 2364,-119.8 2866.75,-119.8 2866.75,-119.8"/>
<polygon fill="black" stroke="black" points="2866.75,-123.3 2876.75,-119.8 2866.75,-116.3 2866.75,-123.3"/>
</g>
<!-- TargetVariableStatsCanvasComponent -->
<g id="node16" class="node">
<title>TargetVariableStatsCanvasComponent</title>
<polygon fill="#ffffb3" stroke="black" points="2259.5,-84.8 2024.5,-84.8 2024.5,-48.8 2259.5,-48.8 2259.5,-84.8"/>
<text text-anchor="middle" x="2142" y="-62.6" font-family="Times,serif" font-size="14.00">TargetVariableStatsCanvasComponent</text>
</g>
<!-- TargetVariableStatsCanvasComponent&#45;&gt;KhiopsVisualizationModule -->
<g id="edge16" class="edge">
<title>TargetVariableStatsCanvasComponent&#45;&gt;KhiopsVisualizationModule</title>
<path fill="none" stroke="black" d="M2142,-84.81C2142,-100.85 2142,-121.8 2142,-121.8 2142,-121.8 2866.81,-121.8 2866.81,-121.8"/>
<polygon fill="black" stroke="black" points="2866.81,-125.3 2876.81,-121.8 2866.81,-118.3 2866.81,-125.3"/>
</g>
<!-- TreeDetailsComponent -->
<g id="node17" class="node">
<title>TreeDetailsComponent</title>
<polygon fill="#ffffb3" stroke="black" points="2006.13,-84.8 1859.87,-84.8 1859.87,-48.8 2006.13,-48.8 2006.13,-84.8"/>
<text text-anchor="middle" x="1933" y="-62.6" font-family="Times,serif" font-size="14.00">TreeDetailsComponent</text>
</g>
<!-- TreeDetailsComponent&#45;&gt;KhiopsVisualizationModule -->
<g id="edge17" class="edge">
<title>TreeDetailsComponent&#45;&gt;KhiopsVisualizationModule</title>
<path fill="none" stroke="black" d="M1933,-84.83C1933,-101.86 1933,-124.8 1933,-124.8 1933,-124.8 2866.54,-124.8 2866.54,-124.8"/>
<polygon fill="black" stroke="black" points="2866.54,-128.3 2876.54,-124.8 2866.54,-121.3 2866.54,-128.3"/>
</g>
<!-- TreeHyperComponent -->
<g id="node18" class="node">
<title>TreeHyperComponent</title>
<polygon fill="#ffffb3" stroke="black" points="1841.96,-84.8 1700.04,-84.8 1700.04,-48.8 1841.96,-48.8 1841.96,-84.8"/>
<text text-anchor="middle" x="1771" y="-62.6" font-family="Times,serif" font-size="14.00">TreeHyperComponent</text>
</g>
<!-- TreeHyperComponent&#45;&gt;KhiopsVisualizationModule -->
<g id="edge18" class="edge">
<title>TreeHyperComponent&#45;&gt;KhiopsVisualizationModule</title>
<path fill="none" stroke="black" d="M1771,-84.8C1771,-102.48 1771,-126.8 1771,-126.8 1771,-126.8 2866.76,-126.8 2866.76,-126.8"/>
<polygon fill="black" stroke="black" points="2866.76,-130.3 2876.76,-126.8 2866.76,-123.3 2866.76,-130.3"/>
</g>
<!-- TreeLeafDetailsComponent -->
<g id="node19" class="node">
<title>TreeLeafDetailsComponent</title>
<polygon fill="#ffffb3" stroke="black" points="1682.27,-84.8 1509.73,-84.8 1509.73,-48.8 1682.27,-48.8 1682.27,-84.8"/>
<text text-anchor="middle" x="1596" y="-62.6" font-family="Times,serif" font-size="14.00">TreeLeafDetailsComponent</text>
</g>
<!-- TreeLeafDetailsComponent&#45;&gt;KhiopsVisualizationModule -->
<g id="edge19" class="edge">
<title>TreeLeafDetailsComponent&#45;&gt;KhiopsVisualizationModule</title>
<path fill="none" stroke="black" d="M1596,-85.02C1596,-103.63 1596,-129.8 1596,-129.8 1596,-129.8 2866.61,-129.8 2866.61,-129.8"/>
<polygon fill="black" stroke="black" points="2866.61,-133.3 2876.61,-129.8 2866.61,-126.3 2866.61,-133.3"/>
</g>
<!-- TreePreparationViewComponent -->
<g id="node20" class="node">
<title>TreePreparationViewComponent</title>
<polygon fill="#ffffb3" stroke="black" points="1491.83,-84.8 1290.17,-84.8 1290.17,-48.8 1491.83,-48.8 1491.83,-84.8"/>
<text text-anchor="middle" x="1391" y="-62.6" font-family="Times,serif" font-size="14.00">TreePreparationViewComponent</text>
</g>
<!-- TreePreparationViewComponent&#45;&gt;KhiopsVisualizationModule -->
<g id="edge20" class="edge">
<title>TreePreparationViewComponent&#45;&gt;KhiopsVisualizationModule</title>
<path fill="none" stroke="black" d="M1391,-84.91C1391,-104.14 1391,-131.8 1391,-131.8 1391,-131.8 2866.62,-131.8 2866.62,-131.8"/>
<polygon fill="black" stroke="black" points="2866.62,-135.3 2876.62,-131.8 2866.62,-128.3 2866.62,-135.3"/>
</g>
<!-- TreeSelectComponent -->
<g id="node21" class="node">
<title>TreeSelectComponent</title>
<polygon fill="#ffffb3" stroke="black" points="1271.68,-84.8 1130.32,-84.8 1130.32,-48.8 1271.68,-48.8 1271.68,-84.8"/>
<text text-anchor="middle" x="1201" y="-62.6" font-family="Times,serif" font-size="14.00">TreeSelectComponent</text>
</g>
<!-- TreeSelectComponent&#45;&gt;KhiopsVisualizationModule -->
<g id="edge21" class="edge">
<title>TreeSelectComponent&#45;&gt;KhiopsVisualizationModule</title>
<path fill="none" stroke="black" d="M1201,-85.02C1201,-105.17 1201,-134.8 1201,-134.8 1201,-134.8 2866.57,-134.8 2866.57,-134.8"/>
<polygon fill="black" stroke="black" points="2866.57,-138.3 2876.57,-134.8 2866.57,-131.3 2866.57,-138.3"/>
</g>
<!-- UserSettingsComponent -->
<g id="node22" class="node">
<title>UserSettingsComponent</title>
<polygon fill="#ffffb3" stroke="black" points="1112.38,-84.8 959.62,-84.8 959.62,-48.8 1112.38,-48.8 1112.38,-84.8"/>
<text text-anchor="middle" x="1036" y="-62.6" font-family="Times,serif" font-size="14.00">UserSettingsComponent</text>
</g>
<!-- UserSettingsComponent&#45;&gt;KhiopsVisualizationModule -->
<g id="edge22" class="edge">
<title>UserSettingsComponent&#45;&gt;KhiopsVisualizationModule</title>
<path fill="none" stroke="black" d="M1036,-85.08C1036,-106.12 1036,-137.8 1036,-137.8 1036,-137.8 2866.78,-137.8 2866.78,-137.8"/>
<polygon fill="black" stroke="black" points="2866.78,-141.3 2876.78,-137.8 2866.78,-134.3 2866.78,-141.3"/>
</g>
<!-- VarDetailsPreparation2dComponent -->
<g id="node23" class="node">
<title>VarDetailsPreparation2dComponent</title>
<polygon fill="#ffffb3" stroke="black" points="941,-84.8 721,-84.8 721,-48.8 941,-48.8 941,-84.8"/>
<text text-anchor="middle" x="831" y="-62.6" font-family="Times,serif" font-size="14.00">VarDetailsPreparation2dComponent</text>
</g>
<!-- VarDetailsPreparation2dComponent&#45;&gt;KhiopsVisualizationModule -->
<g id="edge23" class="edge">
<title>VarDetailsPreparation2dComponent&#45;&gt;KhiopsVisualizationModule</title>
<path fill="none" stroke="black" d="M831,-84.84C831,-106.46 831,-139.8 831,-139.8 831,-139.8 2866.74,-139.8 2866.74,-139.8"/>
<polygon fill="black" stroke="black" points="2866.74,-143.3 2876.74,-139.8 2866.74,-136.3 2866.74,-143.3"/>
</g>
<!-- VarDetailsPreparationComponent -->
<g id="node24" class="node">
<title>VarDetailsPreparationComponent</title>
<polygon fill="#ffffb3" stroke="black" points="702,-84.8 496,-84.8 496,-48.8 702,-48.8 702,-84.8"/>
<text text-anchor="middle" x="599" y="-62.6" font-family="Times,serif" font-size="14.00">VarDetailsPreparationComponent</text>
</g>
<!-- VarDetailsPreparationComponent&#45;&gt;KhiopsVisualizationModule -->
<g id="edge24" class="edge">
<title>VarDetailsPreparationComponent&#45;&gt;KhiopsVisualizationModule</title>
<path fill="none" stroke="black" d="M599,-84.81C599,-107.29 599,-142.8 599,-142.8 599,-142.8 2866.67,-142.8 2866.67,-142.8"/>
<polygon fill="black" stroke="black" points="2866.67,-146.3 2876.67,-142.8 2866.67,-139.3 2866.67,-146.3"/>
</g>
<!-- VarDetailsTreePreparationComponent -->
<g id="node25" class="node">
<title>VarDetailsTreePreparationComponent</title>
<polygon fill="#ffffb3" stroke="black" points="478.15,-84.8 245.85,-84.8 245.85,-48.8 478.15,-48.8 478.15,-84.8"/>
<text text-anchor="middle" x="362" y="-62.6" font-family="Times,serif" font-size="14.00">VarDetailsTreePreparationComponent</text>
</g>
<!-- VarDetailsTreePreparationComponent&#45;&gt;KhiopsVisualizationModule -->
<g id="edge25" class="edge">
<title>VarDetailsTreePreparationComponent&#45;&gt;KhiopsVisualizationModule</title>
<path fill="none" stroke="black" d="M362,-84.89C362,-107.93 362,-144.8 362,-144.8 362,-144.8 2866.68,-144.8 2866.68,-144.8"/>
<polygon fill="black" stroke="black" points="2866.68,-148.3 2876.68,-144.8 2866.68,-141.3 2866.68,-148.3"/>
</g>
<!-- VariableGraphDetailsComponent -->
<g id="node26" class="node">
<title>VariableGraphDetailsComponent</title>
<polygon fill="#ffffb3" stroke="black" points="228.17,-84.8 23.83,-84.8 23.83,-48.8 228.17,-48.8 228.17,-84.8"/>
<text text-anchor="middle" x="126" y="-62.6" font-family="Times,serif" font-size="14.00">VariableGraphDetailsComponent</text>
</g>
<!-- VariableGraphDetailsComponent&#45;&gt;KhiopsVisualizationModule -->
<g id="edge26" class="edge">
<title>VariableGraphDetailsComponent&#45;&gt;KhiopsVisualizationModule</title>
<path fill="none" stroke="black" d="M126,-85.18C126,-109.08 126,-147.8 126,-147.8 126,-147.8 2866.74,-147.8 2866.74,-147.8"/>
<polygon fill="black" stroke="black" points="2866.74,-151.3 2876.74,-147.8 2866.74,-144.3 2866.74,-151.3"/>
</g>
<!-- AppComponent  -->
<g id="node30" class="node">
<title>AppComponent </title>
<polygon fill="#80b1d3" stroke="black" points="3018.44,-214.8 2909.56,-214.8 2909.56,-178.8 3018.44,-178.8 3018.44,-214.8"/>
<text text-anchor="middle" x="2964" y="-192.6" font-family="Times,serif" font-size="14.00">AppComponent </text>
</g>
<!-- KhiopsVisualizationModule&#45;&gt;AppComponent  -->
<g id="edge29" class="edge">
<title>KhiopsVisualizationModule&#45;&gt;AppComponent </title>
<path fill="none" stroke="black" stroke-dasharray="1,5" d="M2964,-149.91C2964,-149.91 2964,-168.79 2964,-168.79"/>
<polygon fill="black" stroke="black" points="2960.5,-168.79 2964,-178.79 2967.5,-168.79 2960.5,-168.79"/>
</g>
<!-- AppRoutingModule -->
<g id="node28" class="node">
<title>AppRoutingModule</title>
<polygon fill="#8dd3c7" stroke="black" points="5602.28,-84.8 5599.28,-88.8 5578.28,-88.8 5575.28,-84.8 5473.72,-84.8 5473.72,-48.8 5602.28,-48.8 5602.28,-84.8"/>
<text text-anchor="middle" x="5538" y="-62.6" font-family="Times,serif" font-size="14.00">AppRoutingModule</text>
</g>
<!-- AppRoutingModule&#45;&gt;KhiopsVisualizationModule -->
<g id="edge27" class="edge">
<title>AppRoutingModule&#45;&gt;KhiopsVisualizationModule</title>
<path fill="none" stroke="black" d="M5538,-85.18C5538,-109.08 5538,-147.8 5538,-147.8 5538,-147.8 3061.49,-147.8 3061.49,-147.8"/>
<polygon fill="black" stroke="black" points="3061.49,-144.3 3051.49,-147.8 3061.49,-151.3 3061.49,-144.3"/>
</g>
<!-- KhiopsLibraryModule -->
<g id="node29" class="node">
<title>KhiopsLibraryModule</title>
<polygon fill="#8dd3c7" stroke="black" points="5455.98,-84.8 5452.98,-88.8 5431.98,-88.8 5428.98,-84.8 5314.02,-84.8 5314.02,-48.8 5455.98,-48.8 5455.98,-84.8"/>
<text text-anchor="middle" x="5385" y="-62.6" font-family="Times,serif" font-size="14.00">KhiopsLibraryModule</text>
</g>
<!-- KhiopsLibraryModule&#45;&gt;KhiopsVisualizationModule -->
<g id="edge28" class="edge">
<title>KhiopsLibraryModule&#45;&gt;KhiopsVisualizationModule</title>
<path fill="none" stroke="black" d="M5385,-84.89C5385,-107.93 5385,-144.8 5385,-144.8 5385,-144.8 3061.24,-144.8 3061.24,-144.8"/>
<polygon fill="black" stroke="black" points="3061.24,-141.3 3051.24,-144.8 3061.24,-148.3 3061.24,-141.3"/>
</g>
</g>
</svg>
