<?xml version="1.0" encoding="UTF-8" standalone="no"?>
<!DOCTYPE svg PUBLIC "-//W3C//DTD SVG 1.1//EN"
 "http://www.w3.org/Graphics/SVG/1.1/DTD/svg11.dtd">
<!-- Generated by graphviz version 5.0.0 (20220707.1540)
 -->
<!-- Title: dependencies Pages: 1 -->
<svg width="4945pt" height="247pt"
 viewBox="0.00 0.00 4945.00 246.80" xmlns="http://www.w3.org/2000/svg" xmlns:xlink="http://www.w3.org/1999/xlink">
<g id="graph0" class="graph" transform="scale(1 1) rotate(0) translate(4 242.8)">
<title>dependencies</title>
<polygon fill="white" stroke="transparent" points="-4,4 -4,-242.8 4941,-242.8 4941,4 -4,4"/>
<text text-anchor="middle" x="2468.5" y="-8.2" font-family="sans-serif" font-size="14.00">dependencies</text>
<g id="clust1" class="cluster">
<title>cluster_KhiopsLibraryModule</title>
<polygon fill="none" stroke="black" stroke-dasharray="1,5" points="8,-32.8 8,-230.8 4929,-230.8 4929,-32.8 8,-32.8"/>
</g>
<g id="clust2" class="cluster">
<title>cluster_KhiopsLibraryModule_declarations</title>
<polygon fill="none" stroke="black" points="16,-40.8 16,-92.8 4921,-92.8 4921,-40.8 16,-40.8"/>
</g>
<g id="clust33" class="cluster">
<title>cluster_KhiopsLibraryModule_exports</title>
<polygon fill="none" stroke="black" points="155,-170.8 155,-222.8 4627,-222.8 4627,-170.8 155,-170.8"/>
</g>
<!-- AgGridComponent -->
<g id="node1" class="node">
<title>AgGridComponent</title>
<polygon fill="#ffffb3" stroke="black" points="4913.1,-84.8 4788.9,-84.8 4788.9,-48.8 4913.1,-48.8 4913.1,-84.8"/>
<text text-anchor="middle" x="4851" y="-62.6" font-family="Times,serif" font-size="14.00">AgGridComponent</text>
</g>
<!-- KhiopsLibraryModule -->
<g id="node30" class="node">
<title>KhiopsLibraryModule</title>
<polygon fill="#8dd3c7" stroke="black" points="2379.98,-149.8 2376.98,-153.8 2355.98,-153.8 2352.98,-149.8 2238.02,-149.8 2238.02,-113.8 2379.98,-113.8 2379.98,-149.8"/>
<text text-anchor="middle" x="2309" y="-127.6" font-family="Times,serif" font-size="14.00">KhiopsLibraryModule</text>
</g>
<!-- AgGridComponent&#45;&gt;KhiopsLibraryModule -->
<g id="edge1" class="edge">
<title>AgGridComponent&#45;&gt;KhiopsLibraryModule</title>
<path fill="none" stroke="black" d="M4851,-84.83C4851,-104.38 4851,-132.8 4851,-132.8 4851,-132.8 2390.31,-132.8 2390.31,-132.8"/>
<polygon fill="black" stroke="black" points="2390.31,-129.3 2380.31,-132.8 2390.31,-136.3 2390.31,-129.3"/>
</g>
<!-- AppVersionComponent -->
<g id="node2" class="node">
<title>AppVersionComponent</title>
<polygon fill="#ffffb3" stroke="black" points="4770.77,-84.8 4621.23,-84.8 4621.23,-48.8 4770.77,-48.8 4770.77,-84.8"/>
<text text-anchor="middle" x="4696" y="-62.6" font-family="Times,serif" font-size="14.00">AppVersionComponent</text>
</g>
<!-- AppVersionComponent&#45;&gt;KhiopsLibraryModule -->
<g id="edge2" class="edge">
<title>AppVersionComponent&#45;&gt;KhiopsLibraryModule</title>
<path fill="none" stroke="black" d="M4696,-84.91C4696,-104.14 4696,-131.8 4696,-131.8 4696,-131.8 2390.11,-131.8 2390.11,-131.8"/>
<polygon fill="black" stroke="black" points="2390.11,-128.3 2380.11,-131.8 2390.11,-135.3 2390.11,-128.3"/>
</g>
<!-- BtnFullscreenComponent -->
<g id="node3" class="node">
<title>BtnFullscreenComponent</title>
<polygon fill="#ffffb3" stroke="black" points="4602.88,-84.8 4443.12,-84.8 4443.12,-48.8 4602.88,-48.8 4602.88,-84.8"/>
<text text-anchor="middle" x="4523" y="-62.6" font-family="Times,serif" font-size="14.00">BtnFullscreenComponent</text>
</g>
<!-- BtnFullscreenComponent&#45;&gt;KhiopsLibraryModule -->
<g id="edge3" class="edge">
<title>BtnFullscreenComponent&#45;&gt;KhiopsLibraryModule</title>
<path fill="none" stroke="black" d="M4458.35,-85.02C4458.35,-103.63 4458.35,-129.8 4458.35,-129.8 4458.35,-129.8 2390.21,-129.8 2390.21,-129.8"/>
<polygon fill="black" stroke="black" points="2390.21,-126.3 2380.21,-129.8 2390.21,-133.3 2390.21,-126.3"/>
</g>
<!-- CellStatsComponent -->
<g id="node4" class="node">
<title>CellStatsComponent</title>
<polygon fill="#ffffb3" stroke="black" points="4424.89,-84.8 4293.11,-84.8 4293.11,-48.8 4424.89,-48.8 4424.89,-84.8"/>
<text text-anchor="middle" x="4359" y="-62.6" font-family="Times,serif" font-size="14.00">CellStatsComponent</text>
</g>
<!-- CellStatsComponent&#45;&gt;KhiopsLibraryModule -->
<g id="edge4" class="edge">
<title>CellStatsComponent&#45;&gt;KhiopsLibraryModule</title>
<path fill="none" stroke="black" d="M4297.87,-85.07C4297.87,-103.36 4297.87,-128.8 4297.87,-128.8 4297.87,-128.8 2390.08,-128.8 2390.08,-128.8"/>
<polygon fill="black" stroke="black" points="2390.08,-125.3 2380.08,-128.8 2390.08,-132.3 2390.08,-125.3"/>
</g>
<!-- ChartNextComponent -->
<g id="node5" class="node">
<title>ChartNextComponent</title>
<polygon fill="#ffffb3" stroke="black" points="4274.65,-84.8 4135.35,-84.8 4135.35,-48.8 4274.65,-48.8 4274.65,-84.8"/>
<text text-anchor="middle" x="4205" y="-62.6" font-family="Times,serif" font-size="14.00">ChartNextComponent</text>
</g>
<!-- ChartNextComponent&#45;&gt;KhiopsLibraryModule -->
<g id="edge5" class="edge">
<title>ChartNextComponent&#45;&gt;KhiopsLibraryModule</title>
<path fill="none" stroke="black" d="M4229.65,-85.1C4229.65,-103.07 4229.65,-127.8 4229.65,-127.8 4229.65,-127.8 2390.21,-127.8 2390.21,-127.8"/>
<polygon fill="black" stroke="black" points="2390.21,-124.3 2380.21,-127.8 2390.21,-131.3 2390.21,-124.3"/>
</g>
<!-- CheckboxCellComponent -->
<g id="node6" class="node">
<title>CheckboxCellComponent</title>
<polygon fill="#ffffb3" stroke="black" points="4116.93,-84.8 3955.07,-84.8 3955.07,-48.8 4116.93,-48.8 4116.93,-84.8"/>
<text text-anchor="middle" x="4036" y="-62.6" font-family="Times,serif" font-size="14.00">CheckboxCellComponent</text>
</g>
<!-- CheckboxCellComponent&#45;&gt;KhiopsLibraryModule -->
<g id="edge6" class="edge">
<title>CheckboxCellComponent&#45;&gt;KhiopsLibraryModule</title>
<path fill="none" stroke="black" d="M3969.44,-84.82C3969.44,-102.17 3969.44,-125.8 3969.44,-125.8 3969.44,-125.8 2390.08,-125.8 2390.08,-125.8"/>
<polygon fill="black" stroke="black" points="2390.08,-122.3 2380.08,-125.8 2390.08,-129.3 2390.08,-122.3"/>
</g>
<!-- ConfirmDialogComponent -->
<g id="node7" class="node">
<title>ConfirmDialogComponent</title>
<polygon fill="#ffffb3" stroke="black" points="3937.38,-84.8 3770.62,-84.8 3770.62,-48.8 3937.38,-48.8 3937.38,-84.8"/>
<text text-anchor="middle" x="3854" y="-62.6" font-family="Times,serif" font-size="14.00">ConfirmDialogComponent</text>
</g>
<!-- ConfirmDialogComponent&#45;&gt;KhiopsLibraryModule -->
<g id="edge7" class="edge">
<title>ConfirmDialogComponent&#45;&gt;KhiopsLibraryModule</title>
<path fill="none" stroke="black" d="M3786.36,-84.83C3786.36,-101.86 3786.36,-124.8 3786.36,-124.8 3786.36,-124.8 2390.26,-124.8 2390.26,-124.8"/>
<polygon fill="black" stroke="black" points="2390.26,-121.3 2380.26,-124.8 2390.26,-128.3 2390.26,-121.3"/>
</g>
<!-- DistributionGraphCanvasComponent -->
<g id="node8" class="node">
<title>DistributionGraphCanvasComponent</title>
<polygon fill="#ffffb3" stroke="black" points="3752.7,-84.8 3527.3,-84.8 3527.3,-48.8 3752.7,-48.8 3752.7,-84.8"/>
<text text-anchor="middle" x="3640" y="-62.6" font-family="Times,serif" font-size="14.00">DistributionGraphCanvasComponent</text>
</g>
<!-- DistributionGraphCanvasComponent&#45;&gt;KhiopsLibraryModule -->
<g id="edge8" class="edge">
<title>DistributionGraphCanvasComponent&#45;&gt;KhiopsLibraryModule</title>
<path fill="none" stroke="black" d="M3557.88,-84.84C3557.88,-101.53 3557.88,-123.8 3557.88,-123.8 3557.88,-123.8 2390.18,-123.8 2390.18,-123.8"/>
<polygon fill="black" stroke="black" points="2390.18,-120.3 2380.18,-123.8 2390.18,-127.3 2390.18,-120.3"/>
</g>
<!-- FileLoaderComponent -->
<g id="node9" class="node">
<title>FileLoaderComponent</title>
<polygon fill="#ffffb3" stroke="black" points="3509.25,-84.8 3366.75,-84.8 3366.75,-48.8 3509.25,-48.8 3509.25,-84.8"/>
<text text-anchor="middle" x="3438" y="-62.6" font-family="Times,serif" font-size="14.00">FileLoaderComponent</text>
</g>
<!-- FileLoaderComponent&#45;&gt;KhiopsLibraryModule -->
<g id="edge9" class="edge">
<title>FileLoaderComponent&#45;&gt;KhiopsLibraryModule</title>
<path fill="none" stroke="black" d="M3461.79,-84.81C3461.79,-100.85 3461.79,-121.8 3461.79,-121.8 3461.79,-121.8 2390.24,-121.8 2390.24,-121.8"/>
<polygon fill="black" stroke="black" points="2390.24,-118.3 2380.24,-121.8 2390.24,-125.3 2390.24,-118.3"/>
</g>
<!-- GraphHeaderComponent -->
<g id="node10" class="node">
<title>GraphHeaderComponent</title>
<polygon fill="#ffffb3" stroke="black" points="3348.23,-84.8 3191.77,-84.8 3191.77,-48.8 3348.23,-48.8 3348.23,-84.8"/>
<text text-anchor="middle" x="3270" y="-62.6" font-family="Times,serif" font-size="14.00">GraphHeaderComponent</text>
</g>
<!-- GraphHeaderComponent&#45;&gt;KhiopsLibraryModule -->
<g id="edge10" class="edge">
<title>GraphHeaderComponent&#45;&gt;KhiopsLibraryModule</title>
<path fill="none" stroke="black" d="M3244.62,-85.08C3244.62,-100.75 3244.62,-120.8 3244.62,-120.8 3244.62,-120.8 2390.09,-120.8 2390.09,-120.8"/>
<polygon fill="black" stroke="black" points="2390.09,-117.3 2380.09,-120.8 2390.09,-124.3 2390.09,-117.3"/>
</g>
<!-- HeaderTitleComponent -->
<g id="node11" class="node">
<title>HeaderTitleComponent</title>
<polygon fill="#ffffb3" stroke="black" points="3174.18,-84.8 3025.82,-84.8 3025.82,-48.8 3174.18,-48.8 3174.18,-84.8"/>
<text text-anchor="middle" x="3100" y="-62.6" font-family="Times,serif" font-size="14.00">HeaderTitleComponent</text>
</g>
<!-- HeaderTitleComponent&#45;&gt;KhiopsLibraryModule -->
<g id="edge11" class="edge">
<title>HeaderTitleComponent&#45;&gt;KhiopsLibraryModule</title>
<path fill="none" stroke="black" d="M3100,-85.04C3100,-100.37 3100,-119.8 3100,-119.8 3100,-119.8 2390.24,-119.8 2390.24,-119.8"/>
<polygon fill="black" stroke="black" points="2390.24,-116.3 2380.24,-119.8 2390.24,-123.3 2390.24,-116.3"/>
</g>
<!-- HeaderToolsComponent -->
<g id="node12" class="node">
<title>HeaderToolsComponent</title>
<polygon fill="#ffffb3" stroke="black" points="3007.64,-84.8 2854.36,-84.8 2854.36,-48.8 3007.64,-48.8 3007.64,-84.8"/>
<text text-anchor="middle" x="2931" y="-62.6" font-family="Times,serif" font-size="14.00">HeaderToolsComponent</text>
</g>
<!-- HeaderToolsComponent&#45;&gt;KhiopsLibraryModule -->
<g id="edge12" class="edge">
<title>HeaderToolsComponent&#45;&gt;KhiopsLibraryModule</title>
<path fill="none" stroke="black" d="M2902.74,-84.92C2902.74,-99.58 2902.74,-117.8 2902.74,-117.8 2902.74,-117.8 2390.03,-117.8 2390.03,-117.8"/>
<polygon fill="black" stroke="black" points="2390.03,-114.3 2380.03,-117.8 2390.03,-121.3 2390.03,-114.3"/>
</g>
<!-- IconCellComponent -->
<g id="node13" class="node">
<title>IconCellComponent</title>
<polygon fill="#ffffb3" stroke="black" points="2835.54,-84.8 2706.46,-84.8 2706.46,-48.8 2835.54,-48.8 2835.54,-84.8"/>
<text text-anchor="middle" x="2771" y="-62.6" font-family="Times,serif" font-size="14.00">IconCellComponent</text>
</g>
<!-- IconCellComponent&#45;&gt;KhiopsLibraryModule -->
<g id="edge13" class="edge">
<title>IconCellComponent&#45;&gt;KhiopsLibraryModule</title>
<path fill="none" stroke="black" d="M2768.4,-84.85C2768.4,-99.17 2768.4,-116.8 2768.4,-116.8 2768.4,-116.8 2390.03,-116.8 2390.03,-116.8"/>
<polygon fill="black" stroke="black" points="2390.03,-113.3 2380.03,-116.8 2390.03,-120.3 2390.03,-113.3"/>
</g>
<!-- ImportFileLoaderComponent -->
<g id="node14" class="node">
<title>ImportFileLoaderComponent</title>
<polygon fill="#ffffb3" stroke="black" points="2688.36,-84.8 2507.64,-84.8 2507.64,-48.8 2688.36,-48.8 2688.36,-84.8"/>
<text text-anchor="middle" x="2598" y="-62.6" font-family="Times,serif" font-size="14.00">ImportFileLoaderComponent</text>
</g>
<!-- ImportFileLoaderComponent&#45;&gt;KhiopsLibraryModule -->
<g id="edge14" class="edge">
<title>ImportFileLoaderComponent&#45;&gt;KhiopsLibraryModule</title>
<path fill="none" stroke="black" d="M2515.03,-85.05C2515.03,-98.98 2515.03,-115.8 2515.03,-115.8 2515.03,-115.8 2390.19,-115.8 2390.19,-115.8"/>
<polygon fill="black" stroke="black" points="2390.19,-112.3 2380.19,-115.8 2390.19,-119.3 2390.19,-112.3"/>
</g>
<!-- InformationsBlockComponent -->
<g id="node15" class="node">
<title>InformationsBlockComponent</title>
<polygon fill="#ffffb3" stroke="black" points="2489.59,-84.8 2302.41,-84.8 2302.41,-48.8 2489.59,-48.8 2489.59,-84.8"/>
<text text-anchor="middle" x="2396" y="-62.6" font-family="Times,serif" font-size="14.00">InformationsBlockComponent</text>
</g>
<!-- InformationsBlockComponent&#45;&gt;KhiopsLibraryModule -->
<g id="edge15" class="edge">
<title>InformationsBlockComponent&#45;&gt;KhiopsLibraryModule</title>
<path fill="none" stroke="black" d="M2341.22,-84.91C2341.22,-84.91 2341.22,-103.79 2341.22,-103.79"/>
<polygon fill="black" stroke="black" points="2337.72,-103.79 2341.22,-113.79 2344.72,-103.79 2337.72,-103.79"/>
</g>
<!-- LegendComponent -->
<g id="node16" class="node">
<title>LegendComponent</title>
<polygon fill="#ffffb3" stroke="black" points="2284.81,-84.8 2161.19,-84.8 2161.19,-48.8 2284.81,-48.8 2284.81,-84.8"/>
<text text-anchor="middle" x="2223" y="-62.6" font-family="Times,serif" font-size="14.00">LegendComponent</text>
</g>
<!-- LegendComponent&#45;&gt;KhiopsLibraryModule -->
<g id="edge16" class="edge">
<title>LegendComponent&#45;&gt;KhiopsLibraryModule</title>
<path fill="none" stroke="black" d="M2261.33,-84.91C2261.33,-84.91 2261.33,-103.79 2261.33,-103.79"/>
<polygon fill="black" stroke="black" points="2257.83,-103.79 2261.33,-113.79 2264.83,-103.79 2257.83,-103.79"/>
</g>
<!-- LibVersionComponent -->
<g id="node17" class="node">
<title>LibVersionComponent</title>
<polygon fill="#ffffb3" stroke="black" points="2143.6,-84.8 1998.4,-84.8 1998.4,-48.8 2143.6,-48.8 2143.6,-84.8"/>
<text text-anchor="middle" x="2071" y="-62.6" font-family="Times,serif" font-size="14.00">LibVersionComponent</text>
</g>
<!-- LibVersionComponent&#45;&gt;KhiopsLibraryModule -->
<g id="edge17" class="edge">
<title>LibVersionComponent&#45;&gt;KhiopsLibraryModule</title>
<path fill="none" stroke="black" d="M2127.63,-85.05C2127.63,-98.98 2127.63,-115.8 2127.63,-115.8 2127.63,-115.8 2227.84,-115.8 2227.84,-115.8"/>
<polygon fill="black" stroke="black" points="2227.84,-119.3 2237.84,-115.8 2227.84,-112.3 2227.84,-119.3"/>
</g>
<!-- MatrixCanvasComponent -->
<g id="node18" class="node">
<title>MatrixCanvasComponent</title>
<polygon fill="#ffffb3" stroke="black" points="1980.15,-84.8 1819.85,-84.8 1819.85,-48.8 1980.15,-48.8 1980.15,-84.8"/>
<text text-anchor="middle" x="1900" y="-62.6" font-family="Times,serif" font-size="14.00">MatrixCanvasComponent</text>
</g>
<!-- MatrixCanvasComponent&#45;&gt;KhiopsLibraryModule -->
<g id="edge18" class="edge">
<title>MatrixCanvasComponent&#45;&gt;KhiopsLibraryModule</title>
<path fill="none" stroke="black" d="M1973.46,-84.85C1973.46,-99.17 1973.46,-116.8 1973.46,-116.8 1973.46,-116.8 2227.84,-116.8 2227.84,-116.8"/>
<polygon fill="black" stroke="black" points="2227.84,-120.3 2237.84,-116.8 2227.84,-113.3 2227.84,-120.3"/>
</g>
<!-- MatrixTooltipComponent -->
<g id="node19" class="node">
<title>MatrixTooltipComponent</title>
<polygon fill="#ffffb3" stroke="black" points="1801.16,-84.8 1640.84,-84.8 1640.84,-48.8 1801.16,-48.8 1801.16,-84.8"/>
<text text-anchor="middle" x="1721" y="-62.6" font-family="Times,serif" font-size="14.00">MatrixTooltipComponent</text>
</g>
<!-- MatrixTooltipComponent&#45;&gt;KhiopsLibraryModule -->
<g id="edge19" class="edge">
<title>MatrixTooltipComponent&#45;&gt;KhiopsLibraryModule</title>
<path fill="none" stroke="black" d="M1790.89,-84.92C1790.89,-99.58 1790.89,-117.8 1790.89,-117.8 1790.89,-117.8 2227.77,-117.8 2227.77,-117.8"/>
<polygon fill="black" stroke="black" points="2227.77,-121.3 2237.77,-117.8 2227.77,-114.3 2227.77,-121.3"/>
</g>
<!-- NoDataComponent -->
<g id="node20" class="node">
<title>NoDataComponent</title>
<polygon fill="#ffffb3" stroke="black" points="1622.37,-84.8 1497.63,-84.8 1497.63,-48.8 1622.37,-48.8 1622.37,-84.8"/>
<text text-anchor="middle" x="1560" y="-62.6" font-family="Times,serif" font-size="14.00">NoDataComponent</text>
</g>
<!-- NoDataComponent&#45;&gt;KhiopsLibraryModule -->
<g id="edge20" class="edge">
<title>NoDataComponent&#45;&gt;KhiopsLibraryModule</title>
<path fill="none" stroke="black" d="M1609,-85.04C1609,-100.37 1609,-119.8 1609,-119.8 1609,-119.8 2227.7,-119.8 2227.7,-119.8"/>
<polygon fill="black" stroke="black" points="2227.7,-123.3 2237.7,-119.8 2227.7,-116.3 2227.7,-123.3"/>
</g>
<!-- ReleaseButtonComponent -->
<g id="node21" class="node">
<title>ReleaseButtonComponent</title>
<polygon fill="#ffffb3" stroke="black" points="1479.48,-84.8 1316.52,-84.8 1316.52,-48.8 1479.48,-48.8 1479.48,-84.8"/>
<text text-anchor="middle" x="1398" y="-62.6" font-family="Times,serif" font-size="14.00">ReleaseButtonComponent</text>
</g>
<!-- ReleaseButtonComponent&#45;&gt;KhiopsLibraryModule -->
<g id="edge21" class="edge">
<title>ReleaseButtonComponent&#45;&gt;KhiopsLibraryModule</title>
<path fill="none" stroke="black" d="M1457.71,-85.08C1457.71,-100.75 1457.71,-120.8 1457.71,-120.8 1457.71,-120.8 2227.88,-120.8 2227.88,-120.8"/>
<polygon fill="black" stroke="black" points="2227.88,-124.3 2237.88,-120.8 2227.88,-117.3 2227.88,-124.3"/>
</g>
<!-- ReleaseNotesComponent -->
<g id="node22" class="node">
<title>ReleaseNotesComponent</title>
<polygon fill="#ffffb3" stroke="black" points="1298.53,-84.8 1141.47,-84.8 1141.47,-48.8 1298.53,-48.8 1298.53,-84.8"/>
<text text-anchor="middle" x="1220" y="-62.6" font-family="Times,serif" font-size="14.00">ReleaseNotesComponent</text>
</g>
<!-- ReleaseNotesComponent&#45;&gt;KhiopsLibraryModule -->
<g id="edge22" class="edge">
<title>ReleaseNotesComponent&#45;&gt;KhiopsLibraryModule</title>
<path fill="none" stroke="black" d="M1294.29,-84.81C1294.29,-100.85 1294.29,-121.8 1294.29,-121.8 1294.29,-121.8 2227.65,-121.8 2227.65,-121.8"/>
<polygon fill="black" stroke="black" points="2227.65,-125.3 2237.65,-121.8 2227.65,-118.3 2227.65,-125.3"/>
</g>
<!-- RowIdentifierPipe -->
<g id="node23" class="node">
<title>RowIdentifierPipe</title>
<polygon fill="#ffffb3" stroke="black" points="1123.92,-84.8 1004.08,-84.8 1004.08,-48.8 1123.92,-48.8 1123.92,-84.8"/>
<text text-anchor="middle" x="1064" y="-62.6" font-family="Times,serif" font-size="14.00">RowIdentifierPipe</text>
</g>
<!-- RowIdentifierPipe&#45;&gt;KhiopsLibraryModule -->
<g id="edge23" class="edge">
<title>RowIdentifierPipe&#45;&gt;KhiopsLibraryModule</title>
<path fill="none" stroke="black" d="M1117.73,-84.84C1117.73,-101.53 1117.73,-123.8 1117.73,-123.8 1117.73,-123.8 2227.61,-123.8 2227.61,-123.8"/>
<polygon fill="black" stroke="black" points="2227.61,-127.3 2237.61,-123.8 2227.61,-120.3 2227.61,-127.3"/>
</g>
<!-- RowIdentifierPipe&#45;&gt;KhiopsLibraryModule -->
<g id="edge24" class="edge">
<title>RowIdentifierPipe&#45;&gt;KhiopsLibraryModule</title>
<path fill="none" stroke="black" d="M1111.74,-84.83C1111.74,-101.86 1111.74,-124.8 1111.74,-124.8 1111.74,-124.8 2227.69,-124.8 2227.69,-124.8"/>
<polygon fill="black" stroke="black" points="2227.69,-128.3 2237.69,-124.8 2227.69,-121.3 2227.69,-128.3"/>
</g>
<!-- ScrollableGraphCanvasComponent -->
<g id="node24" class="node">
<title>ScrollableGraphCanvasComponent</title>
<polygon fill="#ffffb3" stroke="black" points="986.29,-84.8 771.71,-84.8 771.71,-48.8 986.29,-48.8 986.29,-84.8"/>
<text text-anchor="middle" x="879" y="-62.6" font-family="Times,serif" font-size="14.00">ScrollableGraphCanvasComponent</text>
</g>
<!-- ScrollableGraphCanvasComponent&#45;&gt;KhiopsLibraryModule -->
<g id="edge25" class="edge">
<title>ScrollableGraphCanvasComponent&#45;&gt;KhiopsLibraryModule</title>
<path fill="none" stroke="black" d="M956.32,-84.82C956.32,-102.17 956.32,-125.8 956.32,-125.8 956.32,-125.8 2227.7,-125.8 2227.7,-125.8"/>
<polygon fill="black" stroke="black" points="2227.7,-129.3 2237.7,-125.8 2227.7,-122.3 2227.7,-129.3"/>
</g>
<!-- SelectableComponent -->
<g id="node25" class="node">
<title>SelectableComponent</title>
<polygon fill="#ffffb3" stroke="black" points="753.36,-84.8 614.64,-84.8 614.64,-48.8 753.36,-48.8 753.36,-84.8"/>
<text text-anchor="middle" x="684" y="-62.6" font-family="Times,serif" font-size="14.00">SelectableComponent</text>
</g>
<!-- SelectableComponent&#45;&gt;KhiopsLibraryModule -->
<g id="edge26" class="edge">
<title>SelectableComponent&#45;&gt;KhiopsLibraryModule</title>
<path fill="none" stroke="black" d="M703.56,-85.1C703.56,-103.07 703.56,-127.8 703.56,-127.8 703.56,-127.8 2227.94,-127.8 2227.94,-127.8"/>
<polygon fill="black" stroke="black" points="2227.94,-131.3 2237.94,-127.8 2227.94,-124.3 2227.94,-131.3"/>
</g>
<!-- SelectableTabComponent -->
<g id="node26" class="node">
<title>SelectableTabComponent</title>
<polygon fill="#ffffb3" stroke="black" points="596.12,-84.8 435.88,-84.8 435.88,-48.8 596.12,-48.8 596.12,-84.8"/>
<text text-anchor="middle" x="516" y="-62.6" font-family="Times,serif" font-size="14.00">SelectableTabComponent</text>
</g>
<!-- SelectableTabComponent&#45;&gt;KhiopsLibraryModule -->
<g id="edge27" class="edge">
<title>SelectableTabComponent&#45;&gt;KhiopsLibraryModule</title>
<path fill="none" stroke="black" d="M590.12,-85.07C590.12,-103.36 590.12,-128.8 590.12,-128.8 590.12,-128.8 2227.87,-128.8 2227.87,-128.8"/>
<polygon fill="black" stroke="black" points="2227.87,-132.3 2237.87,-128.8 2227.87,-125.3 2227.87,-132.3"/>
</g>
<!-- ToPrecisionPipe -->
<g id="node27" class="node">
<title>ToPrecisionPipe</title>
<polygon fill="#ffffb3" stroke="black" points="417.05,-84.8 308.95,-84.8 308.95,-48.8 417.05,-48.8 417.05,-84.8"/>
<text text-anchor="middle" x="363" y="-62.6" font-family="Times,serif" font-size="14.00">ToPrecisionPipe</text>
</g>
<!-- ToPrecisionPipe&#45;&gt;KhiopsLibraryModule -->
<g id="edge28" class="edge">
<title>ToPrecisionPipe&#45;&gt;KhiopsLibraryModule</title>
<path fill="none" stroke="black" d="M378.52,-85.02C378.52,-103.63 378.52,-129.8 378.52,-129.8 378.52,-129.8 2228,-129.8 2228,-129.8"/>
<polygon fill="black" stroke="black" points="2228,-133.3 2238,-129.8 2228,-126.3 2228,-133.3"/>
</g>
<!-- TranslatePipe -->
<g id="node28" class="node">
<title>TranslatePipe</title>
<polygon fill="#ffffb3" stroke="black" points="290.47,-84.8 197.53,-84.8 197.53,-48.8 290.47,-48.8 290.47,-84.8"/>
<text text-anchor="middle" x="244" y="-62.6" font-family="Times,serif" font-size="14.00">TranslatePipe</text>
</g>
<!-- TranslatePipe&#45;&gt;KhiopsLibraryModule -->
<g id="edge29" class="edge">
<title>TranslatePipe&#45;&gt;KhiopsLibraryModule</title>
<path fill="none" stroke="black" d="M244,-84.91C244,-104.14 244,-131.8 244,-131.8 244,-131.8 2227.92,-131.8 2227.92,-131.8"/>
<polygon fill="black" stroke="black" points="2227.92,-135.3 2237.92,-131.8 2227.92,-128.3 2227.92,-135.3"/>
</g>
<!-- WatchResizeComponent -->
<g id="node29" class="node">
<title>WatchResizeComponent</title>
<polygon fill="#ffffb3" stroke="black" points="179.68,-84.8 24.32,-84.8 24.32,-48.8 179.68,-48.8 179.68,-84.8"/>
<text text-anchor="middle" x="102" y="-62.6" font-family="Times,serif" font-size="14.00">WatchResizeComponent</text>
</g>
<!-- WatchResizeComponent&#45;&gt;KhiopsLibraryModule -->
<g id="edge30" class="edge">
<title>WatchResizeComponent&#45;&gt;KhiopsLibraryModule</title>
<path fill="none" stroke="black" d="M171.12,-84.83C171.12,-104.38 171.12,-132.8 171.12,-132.8 171.12,-132.8 2227.87,-132.8 2227.87,-132.8"/>
<polygon fill="black" stroke="black" points="2227.87,-136.3 2237.87,-132.8 2227.87,-129.3 2227.87,-136.3"/>
</g>
<!-- AgGridComponent  -->
<g id="node31" class="node">
<title>AgGridComponent </title>
<polygon fill="#fb8072" stroke="black" points="4618.6,-214.8 4491.4,-214.8 4491.4,-178.8 4618.6,-178.8 4618.6,-214.8"/>
<text text-anchor="middle" x="4555" y="-192.6" font-family="Times,serif" font-size="14.00">AgGridComponent </text>
</g>
<!-- KhiopsLibraryModule&#45;&gt;AgGridComponent  -->
<g id="edge31" class="edge">
<title>KhiopsLibraryModule&#45;&gt;AgGridComponent </title>
<path fill="none" stroke="black" stroke-dasharray="5,2" d="M2379.99,-133.8C2761.08,-133.8 4547.07,-133.8 4547.07,-133.8 4547.07,-133.8 4547.07,-168.58 4547.07,-168.58"/>
<polygon fill="black" stroke="black" points="4543.57,-168.58 4547.07,-178.58 4550.57,-168.58 4543.57,-168.58"/>
</g>
<!-- AppVersionComponent  -->
<g id="node32" class="node">
<title>AppVersionComponent </title>
<polygon fill="#fb8072" stroke="black" points="4473.77,-214.8 4320.23,-214.8 4320.23,-178.8 4473.77,-178.8 4473.77,-214.8"/>
<text text-anchor="middle" x="4397" y="-192.6" font-family="Times,serif" font-size="14.00">AppVersionComponent </text>
</g>
<!-- KhiopsLibraryModule&#45;&gt;AppVersionComponent  -->
<g id="edge32" class="edge">
<title>KhiopsLibraryModule&#45;&gt;AppVersionComponent </title>
<path fill="none" stroke="black" stroke-dasharray="5,2" d="M2380.04,-135.8C2742.91,-135.8 4372.66,-135.8 4372.66,-135.8 4372.66,-135.8 4372.66,-168.5 4372.66,-168.5"/>
<polygon fill="black" stroke="black" points="4369.16,-168.5 4372.66,-178.5 4376.16,-168.5 4369.16,-168.5"/>
</g>
<!-- BtnFullscreenComponent  -->
<g id="node33" class="node">
<title>BtnFullscreenComponent </title>
<polygon fill="#fb8072" stroke="black" points="4302.88,-214.8 4139.12,-214.8 4139.12,-178.8 4302.88,-178.8 4302.88,-214.8"/>
<text text-anchor="middle" x="4221" y="-192.6" font-family="Times,serif" font-size="14.00">BtnFullscreenComponent </text>
</g>
<!-- KhiopsLibraryModule&#45;&gt;BtnFullscreenComponent  -->
<g id="edge33" class="edge">
<title>KhiopsLibraryModule&#45;&gt;BtnFullscreenComponent </title>
<path fill="none" stroke="black" stroke-dasharray="5,2" d="M2380.23,-136.8C2722.81,-136.8 4184.48,-136.8 4184.48,-136.8 4184.48,-136.8 4184.48,-168.8 4184.48,-168.8"/>
<polygon fill="black" stroke="black" points="4180.98,-168.8 4184.48,-178.8 4187.98,-168.8 4180.98,-168.8"/>
</g>
<!-- ChartNextComponent  -->
<g id="node34" class="node">
<title>ChartNextComponent </title>
<polygon fill="#fb8072" stroke="black" points="4121.65,-214.8 3978.35,-214.8 3978.35,-178.8 4121.65,-178.8 4121.65,-214.8"/>
<text text-anchor="middle" x="4050" y="-192.6" font-family="Times,serif" font-size="14.00">ChartNextComponent </text>
</g>
<!-- KhiopsLibraryModule&#45;&gt;ChartNextComponent  -->
<g id="edge34" class="edge">
<title>KhiopsLibraryModule&#45;&gt;ChartNextComponent </title>
<path fill="none" stroke="black" stroke-dasharray="5,2" d="M2380.12,-137.8C2706.8,-137.8 4047.57,-137.8 4047.57,-137.8 4047.57,-137.8 4047.57,-168.78 4047.57,-168.78"/>
<polygon fill="black" stroke="black" points="4044.07,-168.78 4047.57,-178.78 4051.07,-168.78 4044.07,-168.78"/>
</g>
<!-- CheckboxCellComponent  -->
<g id="node35" class="node">
<title>CheckboxCellComponent </title>
<polygon fill="#fb8072" stroke="black" points="3960.43,-214.8 3795.57,-214.8 3795.57,-178.8 3960.43,-178.8 3960.43,-214.8"/>
<text text-anchor="middle" x="3878" y="-192.6" font-family="Times,serif" font-size="14.00">CheckboxCellComponent </text>
</g>
<!-- KhiopsLibraryModule&#45;&gt;CheckboxCellComponent  -->
<g id="edge35" class="edge">
<title>KhiopsLibraryModule&#45;&gt;CheckboxCellComponent </title>
<path fill="none" stroke="black" stroke-dasharray="5,2" d="M2380.23,-139.8C2685.32,-139.8 3866.49,-139.8 3866.49,-139.8 3866.49,-139.8 3866.49,-168.76 3866.49,-168.76"/>
<polygon fill="black" stroke="black" points="3862.99,-168.76 3866.49,-178.76 3869.99,-168.76 3862.99,-168.76"/>
</g>
<!-- ConfirmDialogComponent  -->
<g id="node36" class="node">
<title>ConfirmDialogComponent </title>
<polygon fill="#fb8072" stroke="black" points="3777.38,-214.8 3606.62,-214.8 3606.62,-178.8 3777.38,-178.8 3777.38,-214.8"/>
<text text-anchor="middle" x="3692" y="-192.6" font-family="Times,serif" font-size="14.00">ConfirmDialogComponent </text>
</g>
<!-- KhiopsLibraryModule&#45;&gt;ConfirmDialogComponent  -->
<g id="edge36" class="edge">
<title>KhiopsLibraryModule&#45;&gt;ConfirmDialogComponent </title>
<path fill="none" stroke="black" stroke-dasharray="5,2" d="M2380.29,-140.8C2661.64,-140.8 3679.71,-140.8 3679.71,-140.8 3679.71,-140.8 3679.71,-168.77 3679.71,-168.77"/>
<polygon fill="black" stroke="black" points="3676.21,-168.77 3679.71,-178.77 3683.21,-168.77 3676.21,-168.77"/>
</g>
<!-- DistributionGraphCanvasComponent  -->
<g id="node37" class="node">
<title>DistributionGraphCanvasComponent </title>
<polygon fill="#fb8072" stroke="black" points="3588.2,-214.8 3359.8,-214.8 3359.8,-178.8 3588.2,-178.8 3588.2,-214.8"/>
<text text-anchor="middle" x="3474" y="-192.6" font-family="Times,serif" font-size="14.00">DistributionGraphCanvasComponent </text>
</g>
<!-- KhiopsLibraryModule&#45;&gt;DistributionGraphCanvasComponent  -->
<g id="edge37" class="edge">
<title>KhiopsLibraryModule&#45;&gt;DistributionGraphCanvasComponent </title>
<path fill="none" stroke="black" stroke-dasharray="5,2" d="M2380.24,-141.8C2624.66,-141.8 3414.21,-141.8 3414.21,-141.8 3414.21,-141.8 3414.21,-168.79 3414.21,-168.79"/>
<polygon fill="black" stroke="black" points="3410.71,-168.79 3414.21,-178.79 3417.71,-168.79 3410.71,-168.79"/>
</g>
<!-- FileLoaderComponent  -->
<g id="node38" class="node">
<title>FileLoaderComponent </title>
<polygon fill="#fb8072" stroke="black" points="3342.25,-214.8 3195.75,-214.8 3195.75,-178.8 3342.25,-178.8 3342.25,-214.8"/>
<text text-anchor="middle" x="3269" y="-192.6" font-family="Times,serif" font-size="14.00">FileLoaderComponent </text>
</g>
<!-- KhiopsLibraryModule&#45;&gt;FileLoaderComponent  -->
<g id="edge38" class="edge">
<title>KhiopsLibraryModule&#45;&gt;FileLoaderComponent </title>
<path fill="none" stroke="black" stroke-dasharray="5,2" d="M2380.19,-143.8C2606.31,-143.8 3293.38,-143.8 3293.38,-143.8 3293.38,-143.8 3293.38,-168.56 3293.38,-168.56"/>
<polygon fill="black" stroke="black" points="3289.88,-168.56 3293.38,-178.56 3296.88,-168.56 3289.88,-168.56"/>
</g>
<!-- GraphHeaderComponent  -->
<g id="node39" class="node">
<title>GraphHeaderComponent </title>
<polygon fill="#fb8072" stroke="black" points="3178.23,-214.8 3017.77,-214.8 3017.77,-178.8 3178.23,-178.8 3178.23,-214.8"/>
<text text-anchor="middle" x="3098" y="-192.6" font-family="Times,serif" font-size="14.00">GraphHeaderComponent </text>
</g>
<!-- KhiopsLibraryModule&#45;&gt;GraphHeaderComponent  -->
<g id="edge39" class="edge">
<title>KhiopsLibraryModule&#45;&gt;GraphHeaderComponent </title>
<path fill="none" stroke="black" stroke-dasharray="5,2" d="M2380.29,-144.8C2560.84,-144.8 3021.9,-144.8 3021.9,-144.8 3021.9,-144.8 3021.9,-168.61 3021.9,-168.61"/>
<polygon fill="black" stroke="black" points="3018.4,-168.61 3021.9,-178.61 3025.4,-168.61 3018.4,-168.61"/>
</g>
<!-- HeaderTitleComponent  -->
<g id="node40" class="node">
<title>HeaderTitleComponent </title>
<polygon fill="#fb8072" stroke="black" points="2999.68,-214.8 2848.32,-214.8 2848.32,-178.8 2999.68,-178.8 2999.68,-214.8"/>
<text text-anchor="middle" x="2924" y="-192.6" font-family="Times,serif" font-size="14.00">HeaderTitleComponent </text>
</g>
<!-- KhiopsLibraryModule&#45;&gt;HeaderTitleComponent  -->
<g id="edge40" class="edge">
<title>KhiopsLibraryModule&#45;&gt;HeaderTitleComponent </title>
<path fill="none" stroke="black" stroke-dasharray="5,2" d="M2380.19,-145.8C2547.42,-145.8 2951.29,-145.8 2951.29,-145.8 2951.29,-145.8 2951.29,-168.68 2951.29,-168.68"/>
<polygon fill="black" stroke="black" points="2947.79,-168.68 2951.29,-178.68 2954.79,-168.68 2947.79,-168.68"/>
</g>
<!-- HeaderToolsComponent  -->
<g id="node41" class="node">
<title>HeaderToolsComponent </title>
<polygon fill="#fb8072" stroke="black" points="2830.63,-214.8 2673.37,-214.8 2673.37,-178.8 2830.63,-178.8 2830.63,-214.8"/>
<text text-anchor="middle" x="2752" y="-192.6" font-family="Times,serif" font-size="14.00">HeaderToolsComponent </text>
</g>
<!-- KhiopsLibraryModule&#45;&gt;HeaderToolsComponent  -->
<g id="edge41" class="edge">
<title>KhiopsLibraryModule&#45;&gt;HeaderToolsComponent </title>
<path fill="none" stroke="black" stroke-dasharray="5,2" d="M2380.27,-147.8C2488.27,-147.8 2680.93,-147.8 2680.93,-147.8 2680.93,-147.8 2680.93,-168.55 2680.93,-168.55"/>
<polygon fill="black" stroke="black" points="2677.43,-168.55 2680.93,-178.55 2684.43,-168.55 2677.43,-168.55"/>
</g>
<!-- IconCellComponent  -->
<g id="node42" class="node">
<title>IconCellComponent </title>
<polygon fill="#fb8072" stroke="black" points="2655.54,-214.8 2522.46,-214.8 2522.46,-178.8 2655.54,-178.8 2655.54,-214.8"/>
<text text-anchor="middle" x="2589" y="-192.6" font-family="Times,serif" font-size="14.00">IconCellComponent </text>
</g>
<!-- KhiopsLibraryModule&#45;&gt;IconCellComponent  -->
<g id="edge42" class="edge">
<title>KhiopsLibraryModule&#45;&gt;IconCellComponent </title>
<path fill="none" stroke="black" stroke-dasharray="5,2" d="M2380.02,-148.8C2462.97,-148.8 2589,-148.8 2589,-148.8 2589,-148.8 2589,-168.65 2589,-168.65"/>
<polygon fill="black" stroke="black" points="2585.5,-168.65 2589,-178.65 2592.5,-168.65 2585.5,-168.65"/>
</g>
<!-- ImportFileLoaderComponent  -->
<g id="node43" class="node">
<title>ImportFileLoaderComponent </title>
<polygon fill="#fb8072" stroke="black" points="2504.36,-214.8 2319.64,-214.8 2319.64,-178.8 2504.36,-178.8 2504.36,-214.8"/>
<text text-anchor="middle" x="2412" y="-192.6" font-family="Times,serif" font-size="14.00">ImportFileLoaderComponent </text>
</g>
<!-- KhiopsLibraryModule&#45;&gt;ImportFileLoaderComponent  -->
<g id="edge43" class="edge">
<title>KhiopsLibraryModule&#45;&gt;ImportFileLoaderComponent </title>
<path fill="none" stroke="black" stroke-dasharray="5,2" d="M2349.91,-149.91C2349.91,-149.91 2349.91,-168.79 2349.91,-168.79"/>
<polygon fill="black" stroke="black" points="2346.41,-168.79 2349.91,-178.79 2353.41,-168.79 2346.41,-168.79"/>
</g>
<!-- InformationsBlockComponent  -->
<g id="node44" class="node">
<title>InformationsBlockComponent </title>
<polygon fill="#fb8072" stroke="black" points="2302.09,-214.8 2111.91,-214.8 2111.91,-178.8 2302.09,-178.8 2302.09,-214.8"/>
<text text-anchor="middle" x="2207" y="-192.6" font-family="Times,serif" font-size="14.00">InformationsBlockComponent </text>
</g>
<!-- KhiopsLibraryModule&#45;&gt;InformationsBlockComponent  -->
<g id="edge44" class="edge">
<title>KhiopsLibraryModule&#45;&gt;InformationsBlockComponent </title>
<path fill="none" stroke="black" stroke-dasharray="5,2" d="M2270.15,-149.91C2270.15,-149.91 2270.15,-168.79 2270.15,-168.79"/>
<polygon fill="black" stroke="black" points="2266.65,-168.79 2270.15,-178.79 2273.65,-168.79 2266.65,-168.79"/>
</g>
<!-- LegendComponent  -->
<g id="node45" class="node">
<title>LegendComponent </title>
<polygon fill="#fb8072" stroke="black" points="2093.31,-214.8 1966.69,-214.8 1966.69,-178.8 2093.31,-178.8 2093.31,-214.8"/>
<text text-anchor="middle" x="2030" y="-192.6" font-family="Times,serif" font-size="14.00">LegendComponent </text>
</g>
<!-- KhiopsLibraryModule&#45;&gt;LegendComponent  -->
<g id="edge45" class="edge">
<title>KhiopsLibraryModule&#45;&gt;LegendComponent </title>
<path fill="none" stroke="black" stroke-dasharray="5,2" d="M2237.81,-148.8C2159.9,-148.8 2045.93,-148.8 2045.93,-148.8 2045.93,-148.8 2045.93,-168.65 2045.93,-168.65"/>
<polygon fill="black" stroke="black" points="2042.43,-168.65 2045.93,-178.65 2049.43,-168.65 2042.43,-168.65"/>
</g>
<!-- LibVersionComponent  -->
<g id="node46" class="node">
<title>LibVersionComponent </title>
<polygon fill="#fb8072" stroke="black" points="1948.1,-214.8 1799.9,-214.8 1799.9,-178.8 1948.1,-178.8 1948.1,-214.8"/>
<text text-anchor="middle" x="1874" y="-192.6" font-family="Times,serif" font-size="14.00">LibVersionComponent </text>
</g>
<!-- KhiopsLibraryModule&#45;&gt;LibVersionComponent  -->
<g id="edge46" class="edge">
<title>KhiopsLibraryModule&#45;&gt;LibVersionComponent </title>
<path fill="none" stroke="black" stroke-dasharray="5,2" d="M2237.86,-147.8C2116.87,-147.8 1883.99,-147.8 1883.99,-147.8 1883.99,-147.8 1883.99,-168.55 1883.99,-168.55"/>
<polygon fill="black" stroke="black" points="1880.49,-168.55 1883.99,-178.55 1887.49,-168.55 1880.49,-168.55"/>
</g>
<!-- MatrixCanvasComponent  -->
<g id="node47" class="node">
<title>MatrixCanvasComponent </title>
<polygon fill="#fb8072" stroke="black" points="1782.15,-214.8 1617.85,-214.8 1617.85,-178.8 1782.15,-178.8 1782.15,-214.8"/>
<text text-anchor="middle" x="1700" y="-192.6" font-family="Times,serif" font-size="14.00">MatrixCanvasComponent </text>
</g>
<!-- KhiopsLibraryModule&#45;&gt;MatrixCanvasComponent  -->
<g id="edge47" class="edge">
<title>KhiopsLibraryModule&#45;&gt;MatrixCanvasComponent </title>
<path fill="none" stroke="black" stroke-dasharray="5,2" d="M2237.8,-145.8C2079.33,-145.8 1711.37,-145.8 1711.37,-145.8 1711.37,-145.8 1711.37,-168.68 1711.37,-168.68"/>
<polygon fill="black" stroke="black" points="1707.87,-168.68 1711.37,-178.68 1714.87,-168.68 1707.87,-168.68"/>
</g>
<!-- MatrixTooltipComponent  -->
<g id="node48" class="node">
<title>MatrixTooltipComponent </title>
<polygon fill="#fb8072" stroke="black" points="1600.16,-214.8 1435.84,-214.8 1435.84,-178.8 1600.16,-178.8 1600.16,-214.8"/>
<text text-anchor="middle" x="1518" y="-192.6" font-family="Times,serif" font-size="14.00">MatrixTooltipComponent </text>
</g>
<!-- KhiopsLibraryModule&#45;&gt;MatrixTooltipComponent  -->
<g id="edge48" class="edge">
<title>KhiopsLibraryModule&#45;&gt;MatrixTooltipComponent </title>
<path fill="none" stroke="black" stroke-dasharray="5,2" d="M2237.83,-144.8C2048.85,-144.8 1548.82,-144.8 1548.82,-144.8 1548.82,-144.8 1548.82,-168.61 1548.82,-168.61"/>
<polygon fill="black" stroke="black" points="1545.32,-168.61 1548.82,-178.61 1552.32,-168.61 1545.32,-168.61"/>
</g>
<!-- NoDataComponent  -->
<g id="node49" class="node">
<title>NoDataComponent </title>
<polygon fill="#fb8072" stroke="black" points="1418.37,-214.8 1289.63,-214.8 1289.63,-178.8 1418.37,-178.8 1418.37,-214.8"/>
<text text-anchor="middle" x="1354" y="-192.6" font-family="Times,serif" font-size="14.00">NoDataComponent </text>
</g>
<!-- KhiopsLibraryModule&#45;&gt;NoDataComponent  -->
<g id="edge49" class="edge">
<title>KhiopsLibraryModule&#45;&gt;NoDataComponent </title>
<path fill="none" stroke="black" stroke-dasharray="5,2" d="M2237.84,-143.8C2018.47,-143.8 1367.35,-143.8 1367.35,-143.8 1367.35,-143.8 1367.35,-168.56 1367.35,-168.56"/>
<polygon fill="black" stroke="black" points="1363.85,-168.56 1367.35,-178.56 1370.85,-168.56 1363.85,-168.56"/>
</g>
<!-- ReleaseButtonComponent  -->
<g id="node50" class="node">
<title>ReleaseButtonComponent </title>
<polygon fill="#fb8072" stroke="black" points="1272.48,-214.8 1105.52,-214.8 1105.52,-178.8 1272.48,-178.8 1272.48,-214.8"/>
<text text-anchor="middle" x="1189" y="-192.6" font-family="Times,serif" font-size="14.00">ReleaseButtonComponent </text>
</g>
<!-- KhiopsLibraryModule&#45;&gt;ReleaseButtonComponent  -->
<g id="edge50" class="edge">
<title>KhiopsLibraryModule&#45;&gt;ReleaseButtonComponent </title>
<path fill="none" stroke="black" stroke-dasharray="5,2" d="M2237.95,-141.8C1994.18,-141.8 1206.74,-141.8 1206.74,-141.8 1206.74,-141.8 1206.74,-168.79 1206.74,-168.79"/>
<polygon fill="black" stroke="black" points="1203.24,-168.79 1206.74,-178.79 1210.24,-168.79 1203.24,-168.79"/>
</g>
<!-- ReleaseNotesComponent  -->
<g id="node51" class="node">
<title>ReleaseNotesComponent </title>
<polygon fill="#fb8072" stroke="black" points="1087.52,-214.8 926.48,-214.8 926.48,-178.8 1087.52,-178.8 1087.52,-214.8"/>
<text text-anchor="middle" x="1007" y="-192.6" font-family="Times,serif" font-size="14.00">ReleaseNotesComponent </text>
</g>
<!-- KhiopsLibraryModule&#45;&gt;ReleaseNotesComponent  -->
<g id="edge51" class="edge">
<title>KhiopsLibraryModule&#45;&gt;ReleaseNotesComponent </title>
<path fill="none" stroke="black" stroke-dasharray="5,2" d="M2237.93,-140.8C1971.33,-140.8 1045.9,-140.8 1045.9,-140.8 1045.9,-140.8 1045.9,-168.77 1045.9,-168.77"/>
<polygon fill="black" stroke="black" points="1042.4,-168.77 1045.9,-178.77 1049.4,-168.77 1042.4,-168.77"/>
</g>
<!-- SelectableComponent  -->
<g id="node52" class="node">
<title>SelectableComponent </title>
<polygon fill="#fb8072" stroke="black" points="908.36,-214.8 765.64,-214.8 765.64,-178.8 908.36,-178.8 908.36,-214.8"/>
<text text-anchor="middle" x="837" y="-192.6" font-family="Times,serif" font-size="14.00">SelectableComponent </text>
</g>
<!-- KhiopsLibraryModule&#45;&gt;SelectableComponent  -->
<g id="edge52" class="edge">
<title>KhiopsLibraryModule&#45;&gt;SelectableComponent </title>
<path fill="none" stroke="black" stroke-dasharray="5,2" d="M2237.65,-139.8C1943.47,-139.8 840.02,-139.8 840.02,-139.8 840.02,-139.8 840.02,-168.76 840.02,-168.76"/>
<polygon fill="black" stroke="black" points="836.52,-168.76 840.02,-178.76 843.52,-168.76 836.52,-168.76"/>
</g>
<!-- SelectableTabComponent  -->
<g id="node53" class="node">
<title>SelectableTabComponent </title>
<polygon fill="#fb8072" stroke="black" points="748.12,-214.8 583.88,-214.8 583.88,-178.8 748.12,-178.8 748.12,-214.8"/>
<text text-anchor="middle" x="666" y="-192.6" font-family="Times,serif" font-size="14.00">SelectableTabComponent </text>
</g>
<!-- KhiopsLibraryModule&#45;&gt;SelectableTabComponent  -->
<g id="edge53" class="edge">
<title>KhiopsLibraryModule&#45;&gt;SelectableTabComponent </title>
<path fill="none" stroke="black" stroke-dasharray="5,2" d="M2237.84,-137.8C1921.59,-137.8 659.07,-137.8 659.07,-137.8 659.07,-137.8 659.07,-168.78 659.07,-168.78"/>
<polygon fill="black" stroke="black" points="655.57,-168.78 659.07,-178.78 662.57,-168.78 655.57,-168.78"/>
</g>
<!-- ToPrecisionPipe  -->
<g id="node54" class="node">
<title>ToPrecisionPipe </title>
<polygon fill="#fb8072" stroke="black" points="566.04,-214.8 453.96,-214.8 453.96,-178.8 566.04,-178.8 566.04,-214.8"/>
<text text-anchor="middle" x="510" y="-192.6" font-family="Times,serif" font-size="14.00">ToPrecisionPipe </text>
</g>
<!-- KhiopsLibraryModule&#45;&gt;ToPrecisionPipe  -->
<g id="edge54" class="edge">
<title>KhiopsLibraryModule&#45;&gt;ToPrecisionPipe </title>
<path fill="none" stroke="black" stroke-dasharray="5,2" d="M2237.92,-136.8C1904.32,-136.8 510,-136.8 510,-136.8 510,-136.8 510,-168.8 510,-168.8"/>
<polygon fill="black" stroke="black" points="506.5,-168.8 510,-178.8 513.5,-168.8 506.5,-168.8"/>
</g>
<!-- TranslatePipe  -->
<g id="node55" class="node">
<title>TranslatePipe </title>
<polygon fill="#fb8072" stroke="black" points="436.47,-214.8 339.53,-214.8 339.53,-178.8 436.47,-178.8 436.47,-214.8"/>
<text text-anchor="middle" x="388" y="-192.6" font-family="Times,serif" font-size="14.00">TranslatePipe </text>
</g>
<!-- KhiopsLibraryModule&#45;&gt;TranslatePipe  -->
<g id="edge55" class="edge">
<title>KhiopsLibraryModule&#45;&gt;TranslatePipe </title>
<path fill="none" stroke="black" stroke-dasharray="5,2" d="M2237.79,-135.8C1894.45,-135.8 426.48,-135.8 426.48,-135.8 426.48,-135.8 426.48,-168.5 426.48,-168.5"/>
<polygon fill="black" stroke="black" points="422.98,-168.5 426.48,-178.5 429.98,-168.5 422.98,-168.5"/>
</g>
<!-- WatchResizeComponent  -->
<g id="node56" class="node">
<title>WatchResizeComponent </title>
<polygon fill="#fb8072" stroke="black" points="321.18,-214.8 162.82,-214.8 162.82,-178.8 321.18,-178.8 321.18,-214.8"/>
<text text-anchor="middle" x="242" y="-192.6" font-family="Times,serif" font-size="14.00">WatchResizeComponent </text>
</g>
<!-- KhiopsLibraryModule&#45;&gt;WatchResizeComponent  -->
<g id="edge56" class="edge">
<title>KhiopsLibraryModule&#45;&gt;WatchResizeComponent </title>
<path fill="none" stroke="black" stroke-dasharray="5,2" d="M2237.74,-133.8C1881.97,-133.8 315.03,-133.8 315.03,-133.8 315.03,-133.8 315.03,-168.58 315.03,-168.58"/>
<polygon fill="black" stroke="black" points="311.53,-168.58 315.03,-178.58 318.53,-168.58 311.53,-168.58"/>
</g>
</g>
</svg>
