<?xml version="1.0" encoding="UTF-8" standalone="no"?>
<!DOCTYPE svg PUBLIC "-//W3C//DTD SVG 1.1//EN"
 "http://www.w3.org/Graphics/SVG/1.1/DTD/svg11.dtd">
<!-- Generated by graphviz version 5.0.0 (20220707.1540)
 -->
<!-- Title: dependencies Pages: 1 -->
<svg width="566pt" height="247pt"
 viewBox="0.00 0.00 566.00 246.80" xmlns="http://www.w3.org/2000/svg" xmlns:xlink="http://www.w3.org/1999/xlink">
<g id="graph0" class="graph" transform="scale(1 1) rotate(0) translate(4 242.8)">
<title>dependencies</title>
<polygon fill="white" stroke="transparent" points="-4,4 -4,-242.8 562,-242.8 562,4 -4,4"/>
<text text-anchor="middle" x="279" y="-8.2" font-family="sans-serif" font-size="14.00">dependencies</text>
<g id="clust1" class="cluster">
<title>cluster_AppModule</title>
<polygon fill="none" stroke="black" stroke-dasharray="1,5" points="8,-32.8 8,-230.8 550,-230.8 550,-32.8 8,-32.8"/>
</g>
<g id="clust2" class="cluster">
<title>cluster_AppModule_declarations</title>
<polygon fill="none" stroke="black" points="420,-40.8 420,-92.8 542,-92.8 542,-40.8 420,-40.8"/>
</g>
<g id="clust4" class="cluster">
<title>cluster_AppModule_imports</title>
<polygon fill="none" stroke="black" points="16,-40.8 16,-92.8 412,-92.8 412,-40.8 16,-40.8"/>
</g>
<g id="clust6" class="cluster">
<title>cluster_AppModule_bootstrap</title>
<polygon fill="none" stroke="black" points="248,-170.8 248,-222.8 372,-222.8 372,-170.8 248,-170.8"/>
</g>
<!-- AppComponent -->
<g id="node1" class="node">
<title>AppComponent</title>
<polygon fill="#ffffb3" stroke="black" points="533.94,-84.8 428.06,-84.8 428.06,-48.8 533.94,-48.8 533.94,-84.8"/>
<text text-anchor="middle" x="481" y="-62.6" font-family="Times,serif" font-size="14.00">AppComponent</text>
</g>
<!-- AppModule -->
<g id="node2" class="node">
<title>AppModule</title>
<polygon fill="#8dd3c7" stroke="black" points="351.66,-149.8 348.66,-153.8 327.66,-153.8 324.66,-149.8 268.34,-149.8 268.34,-113.8 351.66,-113.8 351.66,-149.8"/>
<text text-anchor="middle" x="310" y="-127.6" font-family="Times,serif" font-size="14.00">AppModule</text>
</g>
<!-- AppComponent&#45;&gt;AppModule -->
<g id="edge1" class="edge">
<title>AppComponent&#45;&gt;AppModule</title>
<path fill="none" stroke="black" d="M481,-84.91C481,-104.14 481,-131.8 481,-131.8 481,-131.8 361.83,-131.8 361.83,-131.8"/>
<polygon fill="black" stroke="black" points="361.83,-128.3 351.83,-131.8 361.83,-135.3 361.83,-128.3"/>
</g>
<!-- AppComponent  -->
<g id="node5" class="node">
<title>AppComponent </title>
<polygon fill="#80b1d3" stroke="black" points="364.44,-214.8 255.56,-214.8 255.56,-178.8 364.44,-178.8 364.44,-214.8"/>
<text text-anchor="middle" x="310" y="-192.6" font-family="Times,serif" font-size="14.00">AppComponent </text>
</g>
<!-- AppModule&#45;&gt;AppComponent  -->
<g id="edge4" class="edge">
<title>AppModule&#45;&gt;AppComponent </title>
<path fill="none" stroke="black" stroke-dasharray="1,5" d="M310,-149.91C310,-149.91 310,-168.79 310,-168.79"/>
<polygon fill="black" stroke="black" points="306.5,-168.79 310,-178.79 313.5,-168.79 306.5,-168.79"/>
</g>
<!-- KhiopsCovisualizationModule -->
<g id="node3" class="node">
<title>KhiopsCovisualizationModule</title>
<polygon fill="#8dd3c7" stroke="black" points="403.88,-84.8 400.88,-88.8 379.88,-88.8 376.88,-84.8 216.12,-84.8 216.12,-48.8 403.88,-48.8 403.88,-84.8"/>
<text text-anchor="middle" x="310" y="-62.6" font-family="Times,serif" font-size="14.00">KhiopsCovisualizationModule</text>
</g>
<!-- KhiopsCovisualizationModule&#45;&gt;AppModule -->
<g id="edge2" class="edge">
<title>KhiopsCovisualizationModule&#45;&gt;AppModule</title>
<path fill="none" stroke="black" d="M310,-84.91C310,-84.91 310,-103.79 310,-103.79"/>
<polygon fill="black" stroke="black" points="306.5,-103.79 310,-113.79 313.5,-103.79 306.5,-103.79"/>
</g>
<!-- KhiopsVisualizationModule -->
<g id="node4" class="node">
<title>KhiopsVisualizationModule</title>
<polygon fill="#8dd3c7" stroke="black" points="198.15,-84.8 195.15,-88.8 174.15,-88.8 171.15,-84.8 23.85,-84.8 23.85,-48.8 198.15,-48.8 198.15,-84.8"/>
<text text-anchor="middle" x="111" y="-62.6" font-family="Times,serif" font-size="14.00">KhiopsVisualizationModule</text>
</g>
<!-- KhiopsVisualizationModule&#45;&gt;AppModule -->
<g id="edge3" class="edge">
<title>KhiopsVisualizationModule&#45;&gt;AppModule</title>
<path fill="none" stroke="black" d="M111,-84.91C111,-104.14 111,-131.8 111,-131.8 111,-131.8 258.28,-131.8 258.28,-131.8"/>
<polygon fill="black" stroke="black" points="258.28,-135.3 268.28,-131.8 258.28,-128.3 258.28,-135.3"/>
</g>
</g>
</svg>
