<?xml version="1.0" encoding="UTF-8" standalone="no"?>
<!DOCTYPE svg PUBLIC "-//W3C//DTD SVG 1.1//EN"
 "http://www.w3.org/Graphics/SVG/1.1/DTD/svg11.dtd">
<!-- Generated by graphviz version 5.0.0 (20220707.1540)
 -->
<!-- Title: dependencies Pages: 1 -->
<svg width="726pt" height="247pt"
 viewBox="0.00 0.00 726.00 246.80" xmlns="http://www.w3.org/2000/svg" xmlns:xlink="http://www.w3.org/1999/xlink">
<g id="graph0" class="graph" transform="scale(1 1) rotate(0) translate(4 242.8)">
<title>dependencies</title>
<polygon fill="white" stroke="transparent" points="-4,4 -4,-242.8 722,-242.8 722,4 -4,4"/>
<text text-anchor="middle" x="359" y="-8.2" font-family="sans-serif" font-size="14.00">dependencies</text>
<g id="clust1" class="cluster">
<title>cluster_AppModule</title>
<polygon fill="none" stroke="black" stroke-dasharray="1,5" points="8,-32.8 8,-230.8 710,-230.8 710,-32.8 8,-32.8"/>
</g>
<g id="clust2" class="cluster">
<title>cluster_AppModule_declarations</title>
<polygon fill="none" stroke="black" points="580,-40.8 580,-92.8 702,-92.8 702,-40.8 580,-40.8"/>
</g>
<g id="clust4" class="cluster">
<title>cluster_AppModule_imports</title>
<polygon fill="none" stroke="black" points="16,-40.8 16,-92.8 572,-92.8 572,-40.8 16,-40.8"/>
</g>
<g id="clust6" class="cluster">
<title>cluster_AppModule_bootstrap</title>
<polygon fill="none" stroke="black" points="316,-170.8 316,-222.8 440,-222.8 440,-170.8 316,-170.8"/>
</g>
<!-- AppComponent -->
<g id="node1" class="node">
<title>AppComponent</title>
<polygon fill="#ffffb3" stroke="black" points="693.94,-84.8 588.06,-84.8 588.06,-48.8 693.94,-48.8 693.94,-84.8"/>
<text text-anchor="middle" x="641" y="-62.6" font-family="Times,serif" font-size="14.00">AppComponent</text>
</g>
<!-- AppModule -->
<g id="node2" class="node">
<title>AppModule</title>
<polygon fill="#8dd3c7" stroke="black" points="419.66,-149.8 416.66,-153.8 395.66,-153.8 392.66,-149.8 336.34,-149.8 336.34,-113.8 419.66,-113.8 419.66,-149.8"/>
<text text-anchor="middle" x="378" y="-127.6" font-family="Times,serif" font-size="14.00">AppModule</text>
</g>
<!-- AppComponent&#45;&gt;AppModule -->
<g id="edge1" class="edge">
<title>AppComponent&#45;&gt;AppModule</title>
<path fill="none" stroke="black" d="M641,-84.91C641,-104.14 641,-131.8 641,-131.8 641,-131.8 429.67,-131.8 429.67,-131.8"/>
<polygon fill="black" stroke="black" points="429.67,-128.3 419.67,-131.8 429.67,-135.3 429.67,-128.3"/>
</g>
<!-- AppComponent  -->
<g id="node6" class="node">
<title>AppComponent </title>
<polygon fill="#80b1d3" stroke="black" points="432.44,-214.8 323.56,-214.8 323.56,-178.8 432.44,-178.8 432.44,-214.8"/>
<text text-anchor="middle" x="378" y="-192.6" font-family="Times,serif" font-size="14.00">AppComponent </text>
</g>
<!-- AppModule&#45;&gt;AppComponent  -->
<g id="edge5" class="edge">
<title>AppModule&#45;&gt;AppComponent </title>
<path fill="none" stroke="black" stroke-dasharray="1,5" d="M378,-149.91C378,-149.91 378,-168.79 378,-168.79"/>
<polygon fill="black" stroke="black" points="374.5,-168.79 378,-178.79 381.5,-168.79 374.5,-168.79"/>
</g>
<!-- KhiopsCovisualizationModule -->
<g id="node3" class="node">
<title>KhiopsCovisualizationModule</title>
<polygon fill="#8dd3c7" stroke="black" points="563.88,-84.8 560.88,-88.8 539.88,-88.8 536.88,-84.8 376.12,-84.8 376.12,-48.8 563.88,-48.8 563.88,-84.8"/>
<text text-anchor="middle" x="470" y="-62.6" font-family="Times,serif" font-size="14.00">KhiopsCovisualizationModule</text>
</g>
<!-- KhiopsCovisualizationModule&#45;&gt;AppModule -->
<g id="edge2" class="edge">
<title>KhiopsCovisualizationModule&#45;&gt;AppModule</title>
<path fill="none" stroke="black" d="M397.95,-84.91C397.95,-84.91 397.95,-103.79 397.95,-103.79"/>
<polygon fill="black" stroke="black" points="394.45,-103.79 397.95,-113.79 401.45,-103.79 394.45,-103.79"/>
</g>
<!-- KhiopsLibraryModule -->
<g id="node4" class="node">
<title>KhiopsLibraryModule</title>
<polygon fill="#8dd3c7" stroke="black" points="357.98,-84.8 354.98,-88.8 333.98,-88.8 330.98,-84.8 216.02,-84.8 216.02,-48.8 357.98,-48.8 357.98,-84.8"/>
<text text-anchor="middle" x="287" y="-62.6" font-family="Times,serif" font-size="14.00">KhiopsLibraryModule</text>
</g>
<!-- KhiopsLibraryModule&#45;&gt;AppModule -->
<g id="edge3" class="edge">
<title>KhiopsLibraryModule&#45;&gt;AppModule</title>
<path fill="none" stroke="black" d="M347.08,-84.91C347.08,-84.91 347.08,-103.79 347.08,-103.79"/>
<polygon fill="black" stroke="black" points="343.58,-103.79 347.08,-113.79 350.58,-103.79 343.58,-103.79"/>
</g>
<!-- KhiopsVisualizationModule -->
<g id="node5" class="node">
<title>KhiopsVisualizationModule</title>
<polygon fill="#8dd3c7" stroke="black" points="198.15,-84.8 195.15,-88.8 174.15,-88.8 171.15,-84.8 23.85,-84.8 23.85,-48.8 198.15,-48.8 198.15,-84.8"/>
<text text-anchor="middle" x="111" y="-62.6" font-family="Times,serif" font-size="14.00">KhiopsVisualizationModule</text>
</g>
<!-- KhiopsVisualizationModule&#45;&gt;AppModule -->
<g id="edge4" class="edge">
<title>KhiopsVisualizationModule&#45;&gt;AppModule</title>
<path fill="none" stroke="black" d="M111,-84.91C111,-104.14 111,-131.8 111,-131.8 111,-131.8 326.28,-131.8 326.28,-131.8"/>
<polygon fill="black" stroke="black" points="326.28,-135.3 336.28,-131.8 326.28,-128.3 326.28,-135.3"/>
</g>
</g>
</svg>
